<?xml version="1.0" encoding="utf-8"?>
<!-- Generator: Adobe Illustrator 24.0.1, SVG Export Plug-In . SVG Version: 6.00 Build 0)  -->
<svg version="1.1" id="Layer_1" xmlns="http://www.w3.org/2000/svg" xmlns:xlink="http://www.w3.org/1999/xlink" x="0px" y="0px"
	 viewBox="0 0 34 39.7" style="enable-background:new 0 0 34 39.7;" xml:space="preserve">
<style type="text/css">
	.st0{fill-rule:evenodd;clip-rule:evenodd;fill:#C4262C;}
	.st1{fill-rule:evenodd;clip-rule:evenodd;fill:#C6232A;}
</style>
<g>
	<path class="st0" d="M16.2,21.6c-0.4-0.1-0.9-0.8-1.1-1.1c-0.2-0.5,0.5-1,0.8-1.2c0.5-0.5,1.8-2,2.3-2.2L16.2,21.6z M20.8,14.6
		c0.1-0.6,1.2-3.2,1.5-3.9c1-2.3,2.2-5.2,3.9-6.9c2.9-2.8,5.7-1,3.5,3.3c-0.6,1.2-1.5,2.2-2.4,3.1C26.3,11.3,22,14.2,20.8,14.6
		L20.8,14.6z M15.5,19c-0.1-0.6,0.2-1.6-0.5-1.7c-0.7-0.1-0.8,0.9-0.7,1.5c0.1,1.8,0.4,0.8-0.8,2.5c-0.4,0.6-2.1,2.4-2.7,2.9
		c-0.7,0.6-1.8,1.4-3,1.7c-1.7,0.4-2.7,0.3-2.6-1.6c0.2-2.4,1.3-4.4,3.1-5.8c0.6-0.5,2.5-1.6,3.3-0.8c0.2,1.1-1.5,0.7-0.9,1.8
		c0.4,0.8,1.7,0.2,2-0.3c0.8-1.3-0.4-2.7-3.1-2.1c-2.5,0.5-4.1,1.8-5.5,3.5c-0.2,0.3-1.4,1.4-1.3,1.7c0,0.1,0.3,0.1,0.4,0.2
		c0,1.6,0.6,3.2,1.7,3.8c1.9,1,4.4-0.4,5.8-1.5c0.7-0.5,3.1-3.3,3.8-4.2c0.1,0.9-0.3,3.5-0.4,4.5c-0.2,1.4-0.6,2.8-1.1,4l-3.5,8.6
		l2-0.2c0.3,0,0.6-0.2,0.7-0.5L17.7,23c0.7,0,3.2,1.4,5-0.8c0.6-0.7,2.4-3.4,2.9-3.7c0,0.2-1.2,2.6-1.5,3.5c-0.6,1.6,0.4,3,1.5,3.5
		c2.2,1.1,4.2-1.8,5.3-3.4l0.4-0.6c0.1-0.3,0-0.2-0.1-0.2c-0.4-0.4-1.7,3.2-4,4.1c-0.8,0.3-1.7-0.1-2-0.6c-0.2-0.5,0.4-1.5,0.6-1.9
		c0.4-0.8,2.6-5.3,2.6-5.7c-2.5-0.1-2.4,0-3.2,1.1c-0.6,0.8-1.2,1.6-1.8,2.4c-0.5,0.7-1.2,1.8-2,2.2c-0.9,0.4-2.7,0.3-3.5-0.2
		c0-0.4,1.8-5.1,2.1-6c0.5-1.5,0.4-1.1,2.1-2.1c2.4-1.4,6.3-4.3,7.9-6.8c2.7-4.1,0.3-6.6-2.1-5.6c-3.4,1.3-7.2,9.2-8.5,12.2
		C18.1,16.9,17.3,17.1,15.5,19L15.5,19z"/>
	<path class="st1" d="M29.5,13.7c0.2-2.7-4.3-1.1-1.6,0.2C28.7,14.3,29,14.1,29.5,13.7L29.5,13.7z"/>
</g>
</svg>
