<?xml version="1.0" encoding="utf-8"?>
<!-- Generator: Adobe Illustrator 24.0.1, SVG Export Plug-In . SVG Version: 6.00 Build 0)  -->
<svg version="1.1" id="Layer_1" xmlns="http://www.w3.org/2000/svg" xmlns:xlink="http://www.w3.org/1999/xlink" x="0px" y="0px"
	 viewBox="0 0 212.6 212.6" style="enable-background:new 0 0 212.6 212.6;" xml:space="preserve">
<style type="text/css">
	.st0{fill:none;stroke:#221F20;stroke-width:7.9937;stroke-miterlimit:10;}
	.st1{fill-rule:evenodd;clip-rule:evenodd;fill:#FEFEFE;}
	.st2{fill-rule:evenodd;clip-rule:evenodd;fill:#C4232B;}
	.st3{fill-rule:evenodd;clip-rule:evenodd;fill:#FDFDFD;}
	.st4{fill:#C3232B;}
	.st5{fill-rule:evenodd;clip-rule:evenodd;fill:#C62229;}
	.st6{fill:none;stroke:#000000;stroke-width:1.7073;stroke-linecap:round;stroke-linejoin:round;stroke-miterlimit:10;}
	
		.st7{clip-path:url(#SVGID_2_);fill:none;stroke:#000000;stroke-width:1.4;stroke-linecap:round;stroke-linejoin:round;stroke-miterlimit:10;}
</style>
<g>
	<path class="st0" d="M-4128.22-3596.35c100.27,0,181.55,80.59,181.55,180s-81.28,180-181.55,180s-181.55-80.59-181.55-180"/>
	<path class="st1" d="M-4122.41-3233.45c97.98,0,177.92-79.26,177.92-176.4c0-97.17-79.94-176.4-177.92-176.4
		c-98.01,0-177.92,79.23-177.92,176.4C-4300.33-3312.71-4220.42-3233.45-4122.41-3233.45L-4122.41-3233.45z"/>
	
		<text transform="matrix(0.0767 -0.9865 0.9971 0.0759 -3898.4075 962.9214)" style="fill:#C4232B; font-family:'ArialMT'; font-size:583.8837px;">I</text>
	
		<text transform="matrix(0.1771 -0.9741 0.9845 0.1753 -3886.2556 721.2114)" style="fill:#C4232B; font-family:'ArialMT'; font-size:583.7266px;">N</text>
	
		<text transform="matrix(0.321 -0.9382 0.9482 0.3176 -3775.3662 114.5303)" style="fill:#C4232B; font-family:'ArialMT'; font-size:583.2855px;">T</text>
	
		<text transform="matrix(0.4138 -0.9026 0.9123 0.4095 -3621.9722 -350.3058)" style="fill:#C4232B; font-family:'ArialMT'; font-size:582.8663px;">E</text>
	
		<text transform="matrix(0.5419 -0.8351 0.8441 0.5362 -3400.7908 -849.4434)" style="fill:#C4232B; font-family:'ArialMT'; font-size:582.1167px;">R</text>
	
		<text transform="matrix(0.6209 -0.7807 0.789 0.6143 -3096.4392 -1322.6318)" style="fill:#C4232B; font-family:'ArialMT'; font-size:581.5559px;">N</text>
	
		<text transform="matrix(0.7282 -0.6861 0.6935 0.7205 -2705.1768 -1801.6677)" style="fill:#C4232B; font-family:'ArialMT'; font-size:580.6757px;">A</text>
	
		<text transform="matrix(0.7921 -0.6145 0.6211 0.7837 -2316.4526 -2159.6567)" style="fill:#C4232B; font-family:'ArialMT'; font-size:580.087px;">T</text>
	
		<text transform="matrix(0.8488 -0.5371 0.5429 0.8398 -1921.5968 -2451.8933)" style="fill:#C4232B; font-family:'ArialMT'; font-size:579.525px;">I</text>
	
		<text transform="matrix(0.8978 -0.4545 0.4594 0.8882 -1719.8164 -2588.3792)" style="fill:#C4232B; font-family:'ArialMT'; font-size:579.0103px;">O</text>
	
		<text transform="matrix(0.9569 -0.3186 0.322 0.9467 -1154.6029 -2871.1125)" style="fill:#C4232B; font-family:'ArialMT'; font-size:578.3517px;">N</text>
	
		<text transform="matrix(0.9947 -0.1753 0.1772 0.9842 -564.7234 -3071.0525)" style="fill:#C4232B; font-family:'ArialMT'; font-size:577.9095px;">A</text>
	
		<text transform="matrix(1.0078 -0.075 0.0758 0.9971 -7.5694 -3170.4636)" style="fill:#C4232B; font-family:'ArialMT'; font-size:577.7527px;">L</text>
	
		<text transform="matrix(1.0104 0.0262 -0.0265 0.9997 508.4786 -3204.4414)" style="fill:#C4232B; font-family:'ArialMT'; font-size:577.722px;"> </text>
	
		<text transform="matrix(1.0077 0.0767 -0.0775 0.997 713.179 -3203.3894)" style="fill:#C4232B; font-family:'ArialMT'; font-size:577.7545px;"> </text>
	
		<text transform="matrix(1.0077 0.0767 -0.0775 0.997 916.9634 -3187.8752)" style="fill:#C4232B; font-family:'ArialMT'; font-size:577.7545px;"> </text>
	
		<text transform="matrix(1.0024 0.127 -0.1284 0.9917 1120.771 -3167.9585)" style="fill:#C4232B; font-family:'ArialMT'; font-size:577.8185px;"> </text>
	<text transform="matrix(1.0107 0 0 1 -3547.4419 2517.9016)"><tspan x="0" y="0" style="fill:#040404; font-family:'ArialMT'; font-size:804.2457px; letter-spacing:213.7;">C</tspan><tspan x="794.73" y="0" style="fill:#040404; font-family:'ArialMT'; font-size:804.2457px; letter-spacing:110.81;">I</tspan><tspan x="1129.96" y="0" style="fill:#040404; font-family:'ArialMT'; font-size:804.2457px; letter-spacing:216.67;">T</tspan><tspan x="1838.37" y="0" style="fill:#040404; font-family:'ArialMT'; font-size:804.2457px;">Y</tspan></text>
	<text transform="matrix(1.0107 0 0 1 77.5581 2517.9016)"><tspan x="0" y="0" style="fill:#040404; font-family:'ArialMT'; font-size:804.2457px; letter-spacing:263.17;">L</tspan><tspan x="711.07" y="0" style="fill:#040404; font-family:'ArialMT'; font-size:804.2457px; letter-spacing:110.81;">I</tspan><tspan x="1046.31" y="0" style="fill:#040404; font-family:'ArialMT'; font-size:804.2457px; letter-spacing:223.6;">G</tspan><tspan x="1896.26" y="0" style="fill:#040404; font-family:'ArialMT'; font-size:804.2457px; letter-spacing:283.95;">H</tspan><tspan x="2761.76" y="0" style="fill:#040404; font-family:'ArialMT'; font-size:804.2457px; letter-spacing:177.1;">T</tspan><tspan x="3430.77" y="0" style="fill:#040404; font-family:'ArialMT'; font-size:804.2457px;">S</tspan></text>
	<text transform="matrix(1.0107 0 0 1 -3081.8169 3725.4016)"><tspan x="0" y="0" style="fill:#040404; font-family:'ArialMT'; font-size:703.8041px; letter-spacing:182.04;">F</tspan><tspan x="612.9" y="0" style="fill:#040404; font-family:'ArialMT'; font-size:703.8041px; letter-spacing:189.96;">R</tspan><tspan x="1311.9" y="0" style="fill:#040404; font-family:'ArialMT'; font-size:703.8041px; letter-spacing:211.73;">A</tspan><tspan x="1993.17" y="0" style="fill:#040404; font-family:'ArialMT'; font-size:703.8041px; letter-spacing:195.9;">G</tspan><tspan x="2736.97" y="0" style="fill:#040404; font-family:'ArialMT'; font-size:703.8041px; letter-spacing:189.96;">R</tspan><tspan x="3435.97" y="0" style="fill:#040404; font-family:'ArialMT'; font-size:703.8041px; letter-spacing:211.73;">A</tspan><tspan x="4117.24" y="0" style="fill:#040404; font-family:'ArialMT'; font-size:703.8041px; letter-spacing:240.42;">N</tspan><tspan x="4866.21" y="0" style="fill:#040404; font-family:'ArialMT'; font-size:703.8041px; letter-spacing:186.99;">C</tspan><tspan x="5561.69" y="0" style="fill:#040404; font-family:'ArialMT'; font-size:703.8041px; letter-spacing:190.95;">E</tspan><tspan x="6222.55" y="0" style="fill:#040404; font-family:'ArialMT'; font-size:703.8041px;">S</tspan></text>
	<path class="st2" d="M-4146.12-3448.69c-0.17-3.6,1.6-9.1-1.94-9.81c-3.52-0.68-4.12,5.05-4.12,8.14
		c-0.06,7.34,2.63,5.78-7.49,17.26c-3.63,4.11-7.49,8.31-11.84,12.5c-3.6,3.49-9.55,7.65-15.64,8.84
		c-8.69,1.73-14.07,1.13-13.04-9.84c2.89-29.99,31.25-42.94,34.31-35.6c0.91,6.15-8.18,4.17-4.89,10.46c1.09,2.07,4,2.35,6.06,1.76
		c6.63-1.87,7.49-11.51,1.29-14.83c-9.89-5.3-27.13,2.98-35.02,10.09c-3.46,3.12-4.83,5.61-7.83,8.73l-5.49,6.8
		c-0.37,1.76,0.26,1.16,0.46,1.33l1.11,0.6c0.06,0.03,0.23,0.08,0.29,0.14c-0.8,22.08,12.15,29.4,29.36,20.32
		c6.92-3.66,10.49-6.97,15.78-12.78c2.57-2.83,4-4.85,6.66-7.71l6.63-7.85c0.97,10.01-5.66,37.28-9.69,47.82l-16.78,41.13
		l12.49-0.28l14.7-36.74c3.17-8.05,12.69-30.98,14.67-37.22c3.52,0.26,16.27,8.7,25.79-3.15c3.06-3.8,12.78-18.74,15.44-20.44
		c-0.34,1.76-3.43,7.63-4.43,9.69c-1.52,3.23-3,6.69-4.17,10.03c-3.26,9.21,1.29,17.01,6.78,20.24c7.89,4.68,14.78-1.87,18.7-5.95
		c3.06-3.17,6.46-8.05,9.06-11.93l2.09-3.23c0.46-1.87,0.14-0.85-0.31-1.39c-1.26-1.25-4.2,4.71-6.18,7.54
		c-2.2,3.17-4.29,6.07-6.69,8.62c-2.29,2.41-5.09,4.73-8.63,5.98c-4.12,1.45-8.66-0.85-9.83-4.11c-1.09-3.06,2.2-8.25,3.4-10.72
		c2.09-4.31,14.64-29.23,14.81-31.63c-12.69-1.11-12.09-0.37-16.5,5.64c-3.09,4.17-6.46,8.56-9.69,13.04
		c-2.69,3.71-6.66,9.72-10.92,11.79c-4.52,2.18-13.92,1.13-17.58-2.15c0.23-2.13,10.38-28.66,12.01-33.19
		c3.09-8.53,2.06-6.09,11.01-11.2c9.49-5.39,17.61-11.59,25.65-18.79c7.46-6.66,15.87-15.11,20.1-24.94
		c7.46-17.38-1.66-29.37-13.84-24.77c-11.18,4.2-24.79,25.48-31.16,36.51c-5.58,9.61-10.26,19.62-15.15,30.33
		C-4132.62-3459.89-4137.02-3458.95-4146.12-3448.69L-4146.12-3448.69z"/>
	<path class="st3" d="M-4119.64-3472.39c3.15-0.88,15.15-8.59,18.47-10.74c11.52-7.51,22.44-17.49,29.08-30.1
		c2.8-5.36,7.38-17.89,2.29-23.7c-5.78-6.6-15.84,0.77-19.44,4.39c-9.09,9.18-16.18,25.54-21.64,38.27c-1.57,3.69-2.94,7-4.46,10.6
		C-4116.61-3480.69-4118.93-3475.59-4119.64-3472.39L-4119.64-3472.39z"/>
	<path class="st3" d="M-4144.83-3433.5l10.86-25.48c-2.17,0.99-9.55,9.47-11.98,11.96c-1.37,1.39-5.17,4.08-4.29,6.66
		C-4149.52-3438.29-4146.8-3434.03-4144.83-3433.5L-4144.83-3433.5z"/>
	<path class="st2" d="M-4075.04-3475.31c0.8-8.53-10.29-11.76-11.87-6.26c-1.03,3.66,1.97,6.09,3.83,7.17
		C-4079.21-3472.16-4077.73-3473.01-4075.04-3475.31L-4075.04-3475.31z"/>
</g>
<g>
	<path class="st0" d="M-4143.1-3781.15c100.27,0,181.55,80.59,181.55,180c0,99.41-81.28,180-181.55,180
		c-100.27,0-181.55-80.59-181.55-180"/>
	<path class="st1" d="M-4137.29-3418.25c97.98,0,177.92-79.26,177.92-176.4c0-97.17-79.94-176.4-177.92-176.4
		c-98.01,0-177.92,79.23-177.92,176.4C-4315.21-3497.51-4235.3-3418.25-4137.29-3418.25L-4137.29-3418.25z"/>
	
		<text transform="matrix(0.0767 -0.9865 0.9971 0.0759 -3913.2874 778.1216)" style="fill:#C4232B; font-family:'ArialMT'; font-size:583.8837px;">I</text>
	
		<text transform="matrix(0.1771 -0.9741 0.9845 0.1753 -3901.1355 536.4116)" style="fill:#C4232B; font-family:'ArialMT'; font-size:583.7266px;">N</text>
	
		<text transform="matrix(0.321 -0.9382 0.9482 0.3176 -3790.2461 -70.2695)" style="fill:#C4232B; font-family:'ArialMT'; font-size:583.2855px;">T</text>
	
		<text transform="matrix(0.4138 -0.9026 0.9123 0.4095 -3636.8521 -535.1055)" style="fill:#C4232B; font-family:'ArialMT'; font-size:582.8663px;">E</text>
	
		<text transform="matrix(0.5419 -0.8351 0.8441 0.5362 -3415.6707 -1034.2432)" style="fill:#C4232B; font-family:'ArialMT'; font-size:582.1167px;">R</text>
	
		<text transform="matrix(0.6209 -0.7807 0.789 0.6143 -3111.3191 -1507.4316)" style="fill:#C4232B; font-family:'ArialMT'; font-size:581.5559px;">N</text>
	
		<text transform="matrix(0.7282 -0.6861 0.6935 0.7205 -2720.0566 -1986.4675)" style="fill:#C4232B; font-family:'ArialMT'; font-size:580.6757px;">A</text>
	
		<text transform="matrix(0.7921 -0.6145 0.6211 0.7837 -2331.3325 -2344.4565)" style="fill:#C4232B; font-family:'ArialMT'; font-size:580.087px;">T</text>
	
		<text transform="matrix(0.8488 -0.5371 0.5429 0.8398 -1936.4767 -2636.6931)" style="fill:#C4232B; font-family:'ArialMT'; font-size:579.525px;">I</text>
	
		<text transform="matrix(0.8978 -0.4545 0.4594 0.8882 -1734.6963 -2773.179)" style="fill:#C4232B; font-family:'ArialMT'; font-size:579.0103px;">O</text>
	
		<text transform="matrix(0.9569 -0.3186 0.322 0.9467 -1169.4828 -3055.9124)" style="fill:#C4232B; font-family:'ArialMT'; font-size:578.3517px;">N</text>
	
		<text transform="matrix(0.9947 -0.1753 0.1772 0.9842 -579.6033 -3255.8523)" style="fill:#C4232B; font-family:'ArialMT'; font-size:577.9095px;">A</text>
	
		<text transform="matrix(1.0078 -0.075 0.0758 0.9971 -22.4493 -3355.2634)" style="fill:#C4232B; font-family:'ArialMT'; font-size:577.7527px;">L</text>
	
		<text transform="matrix(1.0104 0.0262 -0.0265 0.9997 493.5987 -3389.2412)" style="fill:#C4232B; font-family:'ArialMT'; font-size:577.722px;"> </text>
	
		<text transform="matrix(1.0077 0.0767 -0.0775 0.997 698.2991 -3388.1892)" style="fill:#C4232B; font-family:'ArialMT'; font-size:577.7545px;"> </text>
	
		<text transform="matrix(1.0077 0.0767 -0.0775 0.997 902.0835 -3372.675)" style="fill:#C4232B; font-family:'ArialMT'; font-size:577.7545px;"> </text>
	
		<text transform="matrix(1.0024 0.127 -0.1284 0.9917 1105.8911 -3352.7583)" style="fill:#C4232B; font-family:'ArialMT'; font-size:577.8185px;"> </text>
	<text transform="matrix(1.0107 0 0 1 -3562.3218 2333.1018)"><tspan x="0" y="0" style="fill:#040404; font-family:'ArialMT'; font-size:804.2457px; letter-spacing:213.7;">C</tspan><tspan x="794.73" y="0" style="fill:#040404; font-family:'ArialMT'; font-size:804.2457px; letter-spacing:110.81;">I</tspan><tspan x="1129.96" y="0" style="fill:#040404; font-family:'ArialMT'; font-size:804.2457px; letter-spacing:216.67;">T</tspan><tspan x="1838.37" y="0" style="fill:#040404; font-family:'ArialMT'; font-size:804.2457px;">Y</tspan></text>
	<text transform="matrix(1.0107 0 0 1 62.6782 2333.1018)"><tspan x="0" y="0" style="fill:#040404; font-family:'ArialMT'; font-size:804.2457px; letter-spacing:263.17;">L</tspan><tspan x="711.08" y="0" style="fill:#040404; font-family:'ArialMT'; font-size:804.2457px; letter-spacing:110.81;">I</tspan><tspan x="1046.31" y="0" style="fill:#040404; font-family:'ArialMT'; font-size:804.2457px; letter-spacing:223.6;">G</tspan><tspan x="1896.26" y="0" style="fill:#040404; font-family:'ArialMT'; font-size:804.2457px; letter-spacing:283.95;">H</tspan><tspan x="2761.77" y="0" style="fill:#040404; font-family:'ArialMT'; font-size:804.2457px; letter-spacing:177.1;">T</tspan><tspan x="3430.77" y="0" style="fill:#040404; font-family:'ArialMT'; font-size:804.2457px;">S</tspan></text>
	<text transform="matrix(1.0107 0 0 1 -3096.6968 3540.6018)"><tspan x="0" y="0" style="fill:#040404; font-family:'ArialMT'; font-size:703.8041px; letter-spacing:182.04;">F</tspan><tspan x="612.9" y="0" style="fill:#040404; font-family:'ArialMT'; font-size:703.8041px; letter-spacing:189.96;">R</tspan><tspan x="1311.9" y="0" style="fill:#040404; font-family:'ArialMT'; font-size:703.8041px; letter-spacing:211.73;">A</tspan><tspan x="1993.17" y="0" style="fill:#040404; font-family:'ArialMT'; font-size:703.8041px; letter-spacing:195.9;">G</tspan><tspan x="2736.98" y="0" style="fill:#040404; font-family:'ArialMT'; font-size:703.8041px; letter-spacing:189.96;">R</tspan><tspan x="3435.97" y="0" style="fill:#040404; font-family:'ArialMT'; font-size:703.8041px; letter-spacing:211.73;">A</tspan><tspan x="4117.25" y="0" style="fill:#040404; font-family:'ArialMT'; font-size:703.8041px; letter-spacing:240.42;">N</tspan><tspan x="4866.22" y="0" style="fill:#040404; font-family:'ArialMT'; font-size:703.8041px; letter-spacing:186.99;">C</tspan><tspan x="5561.69" y="0" style="fill:#040404; font-family:'ArialMT'; font-size:703.8041px; letter-spacing:190.95;">E</tspan><tspan x="6222.56" y="0" style="fill:#040404; font-family:'ArialMT'; font-size:703.8041px;">S</tspan></text>
	<path class="st2" d="M-4161-3633.49c-0.17-3.6,1.6-9.1-1.94-9.81c-3.52-0.68-4.12,5.05-4.12,8.14c-0.06,7.34,2.63,5.78-7.49,17.26
		c-3.63,4.11-7.49,8.31-11.84,12.5c-3.6,3.49-9.55,7.65-15.64,8.84c-8.69,1.73-14.07,1.13-13.04-9.84
		c2.89-29.99,31.25-42.94,34.31-35.6c0.92,6.15-8.18,4.17-4.89,10.46c1.09,2.07,4,2.35,6.06,1.76c6.63-1.87,7.49-11.51,1.29-14.83
		c-9.89-5.3-27.13,2.98-35.02,10.09c-3.46,3.12-4.83,5.61-7.83,8.73l-5.49,6.8c-0.37,1.76,0.26,1.16,0.46,1.33l1.12,0.6
		c0.06,0.03,0.23,0.09,0.29,0.14c-0.8,22.08,12.15,29.4,29.36,20.32c6.92-3.66,10.49-6.97,15.78-12.78c2.57-2.83,4-4.85,6.66-7.71
		l6.63-7.85c0.97,10.01-5.66,37.28-9.69,47.82l-16.78,41.13l12.49-0.28l14.7-36.74c3.17-8.05,12.69-30.98,14.67-37.22
		c3.52,0.26,16.27,8.7,25.79-3.15c3.06-3.8,12.78-18.74,15.44-20.44c-0.34,1.76-3.43,7.63-4.43,9.69c-1.52,3.23-3,6.69-4.17,10.03
		c-3.26,9.21,1.29,17.01,6.78,20.24c7.89,4.68,14.78-1.87,18.7-5.95c3.06-3.17,6.46-8.05,9.06-11.93l2.09-3.23
		c0.46-1.87,0.14-0.85-0.31-1.39c-1.26-1.25-4.2,4.71-6.18,7.54c-2.2,3.17-4.29,6.07-6.69,8.62c-2.29,2.41-5.09,4.73-8.63,5.98
		c-4.12,1.45-8.66-0.85-9.84-4.11c-1.09-3.06,2.2-8.25,3.4-10.71c2.09-4.31,14.64-29.23,14.81-31.63
		c-12.69-1.11-12.09-0.37-16.5,5.64c-3.09,4.17-6.46,8.56-9.69,13.04c-2.69,3.71-6.66,9.72-10.92,11.79
		c-4.52,2.18-13.92,1.13-17.58-2.15c0.23-2.13,10.38-28.66,12.01-33.19c3.09-8.53,2.06-6.09,11.01-11.2
		c9.49-5.39,17.61-11.59,25.65-18.79c7.46-6.66,15.87-15.11,20.1-24.94c7.46-17.38-1.66-29.37-13.84-24.77
		c-11.18,4.2-24.79,25.48-31.16,36.51c-5.58,9.61-10.26,19.62-15.15,30.33C-4147.5-3644.69-4151.9-3643.75-4161-3633.49
		L-4161-3633.49z"/>
	<path class="st3" d="M-4134.52-3657.19c3.15-0.88,15.15-8.59,18.47-10.74c11.52-7.51,22.44-17.49,29.08-30.1
		c2.8-5.36,7.38-17.89,2.29-23.7c-5.78-6.6-15.84,0.77-19.44,4.39c-9.09,9.18-16.18,25.54-21.64,38.27c-1.57,3.69-2.94,7-4.46,10.6
		C-4131.49-3665.49-4133.81-3660.39-4134.52-3657.19L-4134.52-3657.19z"/>
	<path class="st3" d="M-4159.71-3618.3l10.86-25.48c-2.17,0.99-9.55,9.47-11.98,11.96c-1.37,1.39-5.17,4.08-4.29,6.66
		C-4164.4-3623.09-4161.68-3618.83-4159.71-3618.3L-4159.71-3618.3z"/>
	<path class="st2" d="M-4089.92-3660.11c0.8-8.53-10.29-11.76-11.86-6.26c-1.03,3.66,1.97,6.09,3.83,7.17
		C-4094.09-3656.96-4092.61-3657.81-4089.92-3660.11L-4089.92-3660.11z"/>
</g>
<g>
	<g>
		<path d="M113.18,139.18h-10.82v-11.01h2.56v8.94h8.26V139.18z"/>
		<path d="M119.49,139.18h-2.56v-11.01h2.56V139.18z"/>
		<path d="M137.95,136.58c0,1.02-0.2,1.71-0.59,2.07c-0.39,0.36-1.11,0.53-2.14,0.53h-7.6c-1.04,0-1.75-0.18-2.14-0.53
			c-0.39-0.36-0.59-1.05-0.59-2.07v-5.81c0-1.02,0.2-1.71,0.59-2.07c0.39-0.36,1.11-0.53,2.14-0.53h7.6c1.09,0,1.82,0.19,2.19,0.57
			c0.36,0.38,0.54,1.11,0.54,2.19l-2.5,0.45v-1.24h-8v6.98h8v-2.45h-4.18v-1.88h6.68V136.58z"/>
		<path d="M156.52,139.18h-2.58v-4.74h-8v4.74h-2.56v-11.01h2.56v4.27h8v-4.27h2.58V139.18z"/>
		<path d="M172.36,130.14h-5.08v9.05h-2.56v-9.05h-5.06v-1.96h12.7V130.14z"/>
		<path d="M187.44,136.58c0,1.02-0.2,1.71-0.6,2.07c-0.4,0.36-1.12,0.53-2.16,0.53h-6.81c-1.12,0-1.86-0.2-2.22-0.6
			s-0.53-1.17-0.53-2.31l2.26-0.47v1.3h7.79v-2.52h-6.87c-1.04,0-1.75-0.18-2.14-0.53c-0.39-0.36-0.59-1.05-0.59-2.07v-1.22
			c0-1.02,0.2-1.71,0.59-2.07c0.39-0.36,1.11-0.53,2.14-0.53h6.25c1.05,0,1.77,0.18,2.15,0.55c0.39,0.36,0.58,1.06,0.58,2.1
			l-2.26,0.53v-1.26h-7.21v2.37h6.87c1.04,0,1.76,0.18,2.16,0.53c0.4,0.36,0.6,1.05,0.6,2.07V136.58z"/>
	</g>
	<g>
		<path d="M46,155.65h-7.55v2.55h4.08v1.77h-4.08v3.68h-2.25v-9.69H46V155.65z"/>
		<path d="M60.29,163.65h-3.23l-3.91-3.66h-2.14v3.66h-2.22v-9.69h8.3c1.45,0,2.18,0.63,2.18,1.88v2.27c0,0.94-0.38,1.52-1.13,1.75
			c-0.29,0.09-1.06,0.13-2.33,0.13L60.29,163.65z M57.09,157.57v-1.16c0-0.33-0.09-0.54-0.28-0.64c-0.14-0.09-0.38-0.13-0.73-0.13
			h-5.07v2.7h5.07c0.35,0,0.59-0.04,0.73-0.13C57,158.11,57.09,157.9,57.09,157.57z"/>
		<path d="M74.52,163.65h-2.54l-1.16-2.12h-6.14l-1.13,2.12H61.3l5.48-9.69h2.18L74.52,163.65z M69.88,159.79l-2.08-3.94l-2.16,3.94
			H69.88z"/>
		<path d="M88.57,161.36c0,0.9-0.17,1.51-0.52,1.82c-0.34,0.31-0.97,0.47-1.89,0.47h-6.69c-0.91,0-1.54-0.16-1.89-0.47
			c-0.34-0.31-0.52-0.92-0.52-1.82v-5.11c0-0.9,0.17-1.51,0.52-1.82c0.34-0.31,0.97-0.47,1.89-0.47h6.69c0.96,0,1.61,0.17,1.92,0.5
			c0.32,0.33,0.48,0.97,0.48,1.93l-2.2,0.39v-1.09h-7.04v6.14h7.04v-2.16h-3.68v-1.65h5.88V161.36z"/>
		<path d="M104.83,163.65h-3.23l-3.91-3.66h-2.14v3.66h-2.22v-9.69h8.3c1.45,0,2.18,0.63,2.18,1.88v2.27c0,0.94-0.38,1.52-1.13,1.75
			c-0.29,0.09-1.06,0.13-2.33,0.13L104.83,163.65z M101.64,157.57v-1.16c0-0.33-0.1-0.54-0.28-0.64c-0.14-0.09-0.38-0.13-0.73-0.13
			h-5.07v2.7h5.07c0.35,0,0.6-0.04,0.73-0.13C101.55,158.11,101.64,157.9,101.64,157.57z"/>
		<path d="M119.07,163.65h-2.54l-1.16-2.12h-6.14l-1.13,2.12h-2.25l5.48-9.69h2.18L119.07,163.65z M114.43,159.79l-2.08-3.94
			l-2.16,3.94H114.43z"/>
		<path d="M133.57,163.65h-1.54l-7.12-5.99c-0.3-0.25-0.57-0.51-0.81-0.79c0.06,0.63,0.09,1.12,0.09,1.48v5.3h-2.03v-9.69h1.54
			l6.82,5.71c0.49,0.41,0.86,0.76,1.11,1.05c-0.06-0.9-0.1-1.46-0.1-1.67v-5.09h2.03V163.65z"/>
		<path d="M148.9,161.36c0,0.9-0.17,1.51-0.52,1.82c-0.35,0.31-0.97,0.47-1.89,0.47h-5.78c-0.92,0-1.54-0.16-1.89-0.47
			c-0.35-0.31-0.52-0.92-0.52-1.82v-5.11c0-0.9,0.17-1.51,0.52-1.82c0.34-0.31,0.97-0.47,1.89-0.47h5.78c1.15,0,1.87,0.27,2.14,0.81
			c0.18,0.31,0.26,1.12,0.26,2.4l-2.25,0.36v-1.84h-6.08v6.14h6.08v-2.08l2.25,0.47V161.36z"/>
		<path d="M163.56,163.65h-10.01v-9.69h9.92v1.65h-7.66v2.16h4.47v1.65h-4.47v2.4h7.76V163.65z"/>
		<path d="M178.25,161.36c0,0.9-0.18,1.51-0.53,1.82c-0.35,0.31-0.98,0.47-1.9,0.47h-5.99c-0.99,0-1.64-0.18-1.95-0.53
			c-0.31-0.35-0.47-1.03-0.47-2.03l1.99-0.41v1.15h6.86v-2.22h-6.05c-0.92,0-1.54-0.16-1.89-0.47c-0.35-0.31-0.52-0.92-0.52-1.82
			v-1.07c0-0.9,0.17-1.51,0.52-1.82c0.34-0.31,0.97-0.47,1.89-0.47h5.5c0.93,0,1.56,0.16,1.9,0.48c0.34,0.32,0.51,0.94,0.51,1.85
			l-1.99,0.47v-1.11h-6.35v2.08h6.05c0.91,0,1.55,0.16,1.9,0.47c0.35,0.31,0.53,0.92,0.53,1.82V161.36z"/>
	</g>
	<g>
		<path d="M38.69,136.58c0,1.03-0.22,1.72-0.65,2.07c-0.43,0.36-1.22,0.53-2.36,0.53h-7.24c-1.14,0-1.93-0.18-2.36-0.53
			c-0.43-0.36-0.65-1.05-0.65-2.07v-5.8c0-1.03,0.22-1.71,0.65-2.07c0.43-0.36,1.22-0.53,2.36-0.53h7.24c1.44,0,2.34,0.31,2.68,0.92
			c0.22,0.36,0.33,1.27,0.33,2.73l-2.82,0.41v-2.09h-7.62v6.98h7.62v-2.37l2.82,0.53V136.58z"/>
		<path d="M47.35,139.18h-2.82v-11.01h2.82V139.18z"/>
		<path d="M64.79,130.14h-5.6v9.05h-2.82v-9.05H50.8v-1.96h13.99V130.14z"/>
		<path d="M80.76,128.17l-6.28,6.02v4.99h-2.85v-4.93l-6.3-6.08h3.76l4.16,4.23l4.19-4.23H80.76z"/>
	</g>
	<g>
		<path class="st4" d="M8.75,103.33l0.21-1.83l7.88,0.91l-0.21,1.83L8.75,103.33z"/>
		<path class="st4" d="M9.53,96.95l0.27-1.23l5.74-4.48c0.32-0.26,0.66-0.5,1.03-0.71c-0.66-0.09-1.11-0.16-1.35-0.21l-4.07-0.88
			l0.35-1.62l7.76,1.67l-0.27,1.23l-6.02,4.67c-0.24,0.18-0.48,0.35-0.77,0.51c0.61,0.07,1.02,0.14,1.25,0.19l4.19,0.9l-0.35,1.62
			L9.53,96.95z"/>
		<path class="st4" d="M21.56,82.41l-0.6,1.74l-6.16-2.11l-1.18,3.45l-1.34-0.46l2.96-8.65l1.34,0.46L15.4,80.3L21.56,82.41z"/>
		<path class="st4" d="M16.33,73.76l3.43-7.36l1.23,0.57l-2.65,5.69l1.6,0.75l1.54-3.32l1.23,0.57l-1.54,3.32l1.78,0.83l2.68-5.76
			l1.35,0.63l-3.46,7.43L16.33,73.76z"/>
		<path class="st4" d="M21.76,62.75l3.59-5.77c0.64-1.03,1.31-1.29,2.25-0.7l1.58,0.98c0.94,0.59,1,1.3,0.36,2.33l-0.55,0.89
			l4.48-1.52l-1.4,2.25l-4.24,1.13l-0.93,1.49l2.54,1.58l-0.96,1.54L21.76,62.75z M23.88,61.94l1.88,1.17l2.19-3.52
			c0.3-0.48,0.35-0.76-0.1-1.04l-0.81-0.5c-0.44-0.28-0.67-0.11-0.97,0.37L23.88,61.94z"/>
		<path class="st4" d="M28.88,51.86l0.8-0.97l7.15-1.35c0.41-0.08,0.82-0.15,1.24-0.16c-0.54-0.38-0.92-0.65-1.11-0.81l-3.22-2.64
			l1.05-1.28l6.13,5.03l-0.8,0.97l-7.48,1.39c-0.3,0.05-0.59,0.09-0.92,0.1c0.51,0.34,0.84,0.59,1.02,0.74l3.31,2.72l-1.05,1.28
			L28.88,51.86z"/>
		<path class="st4" d="M40.24,39.14l1.29-1.22l8.74,2.63l-1.5,1.42l-1.88-0.61l-3.65,3.45l0.52,1.89l-1.34,1.27L40.24,39.14z
			 M45.36,40.85l-3.45-1.17l0.93,3.56L45.36,40.85z"/>
		<path class="st4" d="M54.23,37.56l-1.46,1.13l-4-5.15l-2.88,2.24l-0.87-1.12l7.22-5.61l0.87,1.12l-2.89,2.24L54.23,37.56z"/>
		<path class="st4" d="M54.51,27.61l1.54-1.02l4.37,6.61l-1.54,1.02L54.51,27.61z"/>
		<path class="st4" d="M61.5,23.25l5.17-2.72c1.32-0.69,1.92-0.58,2.62,0.74l1.95,3.7c0.7,1.32,0.45,1.88-0.87,2.58l-5.17,2.72
			c-1.32,0.7-1.92,0.58-2.62-0.74l-1.95-3.7C59.94,24.5,60.19,23.94,61.5,23.25z M69.78,26.17l-2.34-4.45l-5.38,2.84L64.4,29
			L69.78,26.17z"/>
		<path class="st4" d="M72.65,17.74l1.18-0.43l6.84,2.48c0.39,0.14,0.78,0.29,1.15,0.5c-0.27-0.61-0.46-1.03-0.54-1.26l-1.43-3.91
			l1.56-0.57l2.72,7.45l-1.18,0.43l-7.15-2.61c-0.29-0.11-0.56-0.22-0.84-0.38c0.27,0.56,0.43,0.94,0.5,1.16l1.47,4.03l-1.56,0.57
			L72.65,17.74z"/>
		<path class="st4" d="M88.88,12.6l1.74-0.39l6.18,6.73l-2.02,0.46l-1.31-1.48l-4.9,1.11l-0.52,1.9l-1.8,0.41L88.88,12.6z
			 M92.4,16.69l-2.37-2.77l-1.01,3.54L92.4,16.69z"/>
		<path class="st4" d="M98.24,10.81l1.83-0.2l0.7,6.4l5.91-0.65l0.16,1.48l-7.74,0.85L98.24,10.81z"/>
	</g>
	<g>
		<path class="st2" d="M101.36,99.48c-1.15-0.23-2.84-2.39-3.3-3.45c-0.59-1.35,1.58-2.85,2.35-3.63c1.36-1.38,5.46-6.02,6.71-6.6
			L101.36,99.48z M115.17,78.4c0.4-1.94,3.62-9.41,4.59-11.72c2.9-6.84,6.66-15.61,11.75-20.68c8.56-8.51,17.02-2.86,10.43,9.71
			c-1.8,3.46-4.6,6.65-7.02,9.29C131.64,68.57,118.68,77.34,115.17,78.4L115.17,78.4z M99.42,91.57c-0.19-1.89,0.73-4.82-1.36-5.1
			c-2.04-0.28-2.26,2.74-2.21,4.38c0.2,5.42,1.34,2.25-2.45,7.42c-1.34,1.8-6.42,7.1-8.13,8.74c-2.01,1.92-5.39,4.25-8.91,5.04
			c-5.03,1.14-8.18,0.96-7.82-4.85c0.43-7.13,3.92-13.06,9.32-17.28c1.7-1.34,7.48-4.87,9.87-2.3c0.66,3.25-4.36,2.18-2.71,5.46
			c1.21,2.4,5.13,0.66,6.04-0.84c2.29-3.78-1.15-8.05-9.3-6.32c-7.41,1.57-12.21,5.22-16.41,10.37c-0.61,0.75-4.1,4.27-3.92,4.98
			c0.11,0.38,0.89,0.44,1.2,0.67c0.01,4.79,1.91,9.6,4.95,11.29c5.59,3.08,13.07-1.24,17.48-4.53c2.08-1.55,9.33-9.72,11.45-12.46
			c0.4,2.61-0.84,10.57-1.32,13.36c-0.7,4.22-1.82,8.25-3.24,12.05l-10.39,25.71l6.1-0.68c0.93-0.1,1.72-0.71,2.06-1.58l16.1-41.51
			c2.05,0.05,9.69,4.17,14.95-2.33c1.69-2.06,7.02-10.17,8.52-11.12c-0.1,0.62-3.62,7.89-4.55,10.59c-1.69,4.93,1.14,8.92,4.4,10.46
			c6.66,3.2,12.68-5.45,15.78-10.11l1.13-1.74c0.24-1.01,0.05-0.48-0.21-0.73c-1.2-1.07-5.16,9.67-12.01,12.18
			c-2.38,0.86-5.07-0.22-5.82-1.91c-0.71-1.57,1.07-4.4,1.72-5.71c1.12-2.32,7.86-15.75,7.91-17.01c-7.4-0.26-7.07,0.11-9.5,3.37
			c-1.69,2.28-3.56,4.68-5.34,7.12c-1.48,2.02-3.64,5.27-6.1,6.47c-2.57,1.27-8.09,0.95-10.3-0.68c0.07-1.13,5.39-15.35,6.24-17.78
			c1.6-4.54,1.07-3.27,6.16-6.15c7.18-4.08,18.78-12.97,23.44-20.17c8.01-12.34,0.98-19.56-6.43-16.66
			c-10.13,3.95-21.42,27.41-25.45,36.32C107.08,85.25,104.52,85.96,99.42,91.57L99.42,91.57z"/>
		<path class="st5" d="M141.08,75.72c0.51-8.18-12.86-3.19-4.66,0.68C138.72,77.49,139.59,77,141.08,75.72L141.08,75.72z"/>
	</g>
	<path class="st6" d="M107.72,13.34"/>
	<g>
		<defs>
			<path id="SVGID_1_" d="M105.3,7.09c56.35,0,101.72,46.97,99.1,103.9c-2.34,50.83-43.59,92.08-94.42,94.42
				c-56.92,2.62-103.9-42.76-103.9-99.1"/>
		</defs>
		<clipPath id="SVGID_2_">
			<use xlink:href="#SVGID_1_"  style="overflow:visible;"/>
		</clipPath>
		<path class="st7" d="M108.43,13.36c53.46,0,96.79,43.34,96.79,96.79s-43.34,96.79-96.79,96.79s-96.79-43.34-96.79-96.79"/>
	</g>
</g>
</svg>
