<?xml version="1.0" encoding="utf-8"?>
<!-- Generator: Adobe Illustrator 24.0.1, SVG Export Plug-In . SVG Version: 6.00 Build 0)  -->
<svg version="1.1" xmlns="http://www.w3.org/2000/svg" xmlns:xlink="http://www.w3.org/1999/xlink" x="0px" y="0px"
	 viewBox="0 0 825 486.38" style="enable-background:new 0 0 825 486.38;" xml:space="preserve">
<style type="text/css">
	.st0{opacity:0.5;fill:#E6E6E6;}
	.st1{fill:#B7B7F7;}
	.st2{fill:#5255EE;}
	.st3{fill:#3329B7;}
	.st4{fill:#170C4A;}
	.st5{fill:#FFFFFF;}
	.st6{fill:#EE4921;}
	.st7{fill:url(#SVGID_1_);}
	.st8{fill:url(#SVGID_2_);}
	.st9{fill:url(#SVGID_3_);}
	.st10{fill:#EA9049;}
	.st11{fill:#E0E7EE;}
	.st12{fill:#372E62;}
	.st13{fill:#ED9659;}
	.st14{fill:url(#SVGID_4_);}
	.st15{fill:url(#SVGID_5_);}
	.st16{fill:url(#SVGID_6_);}
	.st17{fill:url(#SVGID_7_);}
	.st18{fill:url(#SVGID_8_);}
	.st19{fill:url(#SVGID_9_);}
	.st20{fill:url(#SVGID_10_);}
	.st21{fill:url(#SVGID_11_);}
	.st22{fill:url(#SVGID_12_);}
	.st23{fill:url(#SVGID_13_);}
	.st24{fill:url(#SVGID_14_);}
	.st25{fill:url(#SVGID_15_);}
	.st26{fill:url(#SVGID_16_);}
	.st27{fill:url(#SVGID_17_);}
	.st28{fill:url(#SVGID_18_);}
	.st29{fill:url(#SVGID_19_);}
	.st30{fill:url(#SVGID_20_);}
	.st31{fill:url(#SVGID_21_);}
	.st32{fill:url(#SVGID_22_);}
	.st33{fill:url(#SVGID_23_);}
	.st34{fill:url(#SVGID_24_);}
	.st35{fill:url(#SVGID_25_);}
	.st36{fill:url(#SVGID_26_);}
	.st37{fill:url(#SVGID_27_);}
	.st38{fill:url(#SVGID_28_);}
	.st39{fill:url(#SVGID_29_);}
	.st40{fill:url(#SVGID_30_);}
	.st41{fill:#F7B8B7;}
	.st42{fill:url(#SVGID_31_);}
	.st43{fill:url(#SVGID_32_);}
	.st44{fill:url(#SVGID_33_);}
	.st45{fill:url(#SVGID_34_);}
	.st46{fill:url(#SVGID_35_);}
	.st47{fill:none;stroke:#372E62;stroke-width:2.5424;stroke-linecap:round;stroke-linejoin:round;}
	.st48{fill:none;stroke:#372E62;stroke-width:2.5424;stroke-linecap:round;stroke-linejoin:round;stroke-dasharray:6.6463,6.6463;}
	.st49{fill:url(#SVGID_36_);}
	.st50{fill:url(#SVGID_37_);}
	.st51{fill:url(#SVGID_38_);}
	.st52{fill:url(#SVGID_39_);}
	.st53{fill:url(#SVGID_40_);}
</style>
<g id="BACKGROUND">
</g>
<g id="OBJECTS">
	<g>
		<ellipse class="st0" cx="412.6" cy="438.65" rx="383" ry="18"/>
		<g>
			<g>
				<path class="st1" d="M820.9,345.58c-2.44-24.38-19.79-45.73-40.06-60.04c-21.75-15.36-47.11-24.66-70.47-37.44
					c-8.61-4.71-17.58-10.67-20.59-20.01c-3.7-11.5,3.05-23.77,11.21-32.69c8.15-8.92,18.17-16.6,23.25-27.57
					c6.17-13.33,3.69-29.53-3.73-42.2c-7.42-12.67-19.22-22.23-31.75-29.9c-36.47-22.31-87.99-28.52-119.39,0.5
					c-16.97,15.69-29.57,41.5-52.68,41.78c-22.76,0.28-36.02-24.47-52.7-39.95c-24.97-23.17-65.8-24.16-93.89-6.13
					c-15.1,9.69-24.19,25.96-38.61,36.37c-7.33,5.29-15.95,9-25.15,8.47c-23.99-1.38-36.75-28.07-55.01-43.68
					C221,67.15,173.61,73.27,139.19,93.45c-13.69,8.03-26.57,18.34-34.34,32.18c-7.77,13.84-9.67,31.69-1.84,45.5
					c9.65,17.02,32.73,27.4,33,46.97c0.19,14.08-12.17,24.92-24.26,32.15c-20.47,12.24-43.24,20.31-63.59,32.74
					C27.8,295.42,9.2,313.74,4.61,337.14c-6.14,31.33,15.55,63.11,44.01,77.59c28.91,14.71,62.75,14.99,95.18,14.96
					c181.4-0.18,362.8-0.36,544.19-0.55c30.88-0.03,63.1-0.37,90.55-14.52c23.9-12.32,42.86-36.77,42.64-63.66
					C821.18,349.15,821.08,347.36,820.9,345.58z"/>
			</g>
			<g>
				<g>
					<circle class="st1" cx="431.1" cy="27.15" r="9.5"/>
					<circle class="st1" cx="425.6" cy="53.65" r="5"/>
					<path class="st1" d="M406.92,35.59c-2.88,1.66-3.86,5.34-2.2,8.21c1.66,2.88,5.34,3.86,8.21,2.2c2.88-1.66,3.86-5.34,2.2-8.21
						C413.47,34.91,409.79,33.93,406.92,35.59z"/>
				</g>
				<g>
					
						<ellipse transform="matrix(0.9239 -0.3827 0.3827 0.9239 9.2918 212.0227)" class="st1" cx="537.6" cy="82.65" rx="13" ry="13"/>
					<path class="st1" d="M524.92,118.4c0,3.6,2.92,6.52,6.52,6.52s6.52-2.92,6.52-6.52s-2.92-6.52-6.52-6.52
						S524.92,114.8,524.92,118.4z"/>
					<path class="st1" d="M505.67,93.81c-3.92,2.26-5.26,7.26-3,11.18c2.26,3.91,7.27,5.26,11.18,3c3.92-2.26,5.26-7.26,3-11.18
						C514.59,92.89,509.58,91.55,505.67,93.81z"/>
				</g>
				<g>
					
						<ellipse transform="matrix(0.9239 -0.3827 0.3827 0.9239 1.8818 126.7702)" class="st1" cx="319.6" cy="58.65" rx="13" ry="13"/>
					<path class="st1" d="M306.05,93.88c0,3.6,2.92,6.52,6.52,6.52c3.6,0,6.52-2.92,6.52-6.52c0-3.6-2.92-6.52-6.52-6.52
						C308.97,87.36,306.05,90.28,306.05,93.88z"/>
					<path class="st1" d="M286.79,69.29c-3.92,2.26-5.26,7.26-3,11.18c2.26,3.91,7.27,5.26,11.18,3c3.92-2.26,5.26-7.26,3-11.18
						C295.72,68.37,290.71,67.03,286.79,69.29z"/>
				</g>
			</g>
		</g>
		<g>
			<g>
				<g>
					<g>
						<g>
							<g>
								<path class="st2" d="M757.07,252.54c-13.82-5.26-1.36-11.4,7.31-13.86c7.02-1.98,24.59-5.22,17.46-17.19
									c-7.47-12.54-14.63,2.95-20.57,4.7c-13.28,3.91,0.54-12.75,3.84-17.19c4.52-6.08,14.03-18.51,2.29-20.58
									c-9.49-1.68-19.33,11.55-23.27,18.14c-2.81,4.7-9.71,26.71-16.9,21.83c-5.44-3.69,0.19-25.73-12.8-9.98
									c-5.28,6.4-4.43,16.7-6.81,24.02c-3.49,10.73-4.96,15.18-14.49,12.42c-4.94-1.43-5.1-7.62-11.19-3.44
									c-3.14,2.15-4.07,12.07-4.04,15.51c0.24,31.63,12.9,52.81,18.86,55.54c8.08,3.7,23.09-1.64,30-5.61
									c3.43-1.97,9.7-5.23,9.26-10.23c-0.5-5.61-9.16-4.8-9.48-8.1c-0.91-9.35,16.29-0.42,21.05-1.75
									c6.17-1.73,16.38-12.74,9.91-18.57c-0.66-0.6-27.55-2.54-12.17-11.1c8.51-4.74,17.64,8.41,25.86-0.92
									C783.02,252.76,762.25,254.51,757.07,252.54z"/>
							</g>
							<path class="st3" d="M754.78,257.52c-5.94-2.51-12.07-4.77-18.54-5.32c4.55-5.68,9.31-11.31,12.78-17.61
								c0.98-1.78-1.93-3.01-2.9-1.24c-0.42,0.77-0.89,1.52-1.35,2.27c-0.5-1.93,0.1-4.81,0.28-6.35c0.47-3.97,1.96-7.54,3.53-11.18
								c0.8-1.87-2.1-3.11-2.9-1.24c-2.03,4.73-3.63,9.24-3.98,14.41c-0.18,2.54-0.33,5.29,1.15,7.39
								c-4.89,7.25-10.98,13.93-16.08,20.97c-2.18-3.45-3.78-7.05-4.52-11.14c-0.8-4.45-0.26-8.98-0.72-13.47
								c-0.21-2.02-3.34-1.63-3.13,0.39c0.56,5.39-0.08,10.69,1.28,16.01c1.02,4.01,2.85,7.55,5.13,10.97
								c-5.86,8.47-11.27,17.28-15.72,26.57c-1.48,3.09-2.83,6.24-4.13,9.4c-2.94-4.4-5.38-8.99-7.08-14.04
								c-0.94-2.81-1.99-5.79-2.37-8.73c-0.29-2.23-0.05-4.34-0.93-6.45c-0.78-1.88-3.71-0.71-2.93,1.17
								c1.08,2.59,0.71,5.97,1.39,8.74c0.66,2.67,1.47,5.33,2.4,7.92c1.9,5.3,4.7,10.12,7.92,14.72c0.05,0.07,0.11,0.09,0.16,0.15
								c-2.2,5.47-4.36,10.97-6.81,16.32c-0.2,0.15-0.37,0.35-0.48,0.64c-0.24,0.6-0.7,1.43-0.86,2.16
								c-4.38,11.06-8.8,22.11-13.04,33.22c-0.72,1.89,2.18,3.14,2.9,1.24c4.23-11.07,8.62-22.08,12.99-33.1
								c0.03-0.05,0.06-0.08,0.09-0.13c1.4-2.89,2.69-5.83,3.93-8.79c5.74,1.46,12.12-0.22,17.48-2.37
								c1.89-0.76,0.71-3.69-1.17-2.93c-4.66,1.87-10.05,3.32-15.08,2.33c2.76-6.78,5.36-13.63,8.51-20.23
								c1.25-2.63,2.59-5.21,3.99-7.75c0.1,0.07,0.19,0.16,0.32,0.21c7.83,3.18,16.27,4.45,24.65,3.13c2-0.31,1.62-3.45-0.39-3.13
								c-7.85,1.23-15.68,0.08-23.02-2.9c-0.02-0.01-0.03,0-0.04-0.01c4.31-7.52,9.17-14.72,14.27-21.73
								c0.87-1.19,1.77-2.37,2.69-3.54c0.18,0.43,0.55,0.78,1.18,0.83c6.27,0.5,12.16,2.68,17.91,5.11
								C755.41,261.21,756.65,258.31,754.78,257.52z"/>
						</g>
						<g>
							<g>
								<g>
									<g>
										<path class="st4" d="M815.47,294.41c-13.95,5.42-28.22,8.69-41.29,16.3c-12.55,7.32-24.74,15.62-36.17,24.59
											c-10.53,8.27-20.61,17.04-31.18,25.27c-12.34,9.6-21.04,21.27-31.58,32.56c-1.69,1.81-4.66-0.65-2.97-2.47
											c9.56-10.24,17.46-21.29,28.43-30.18c11.65-9.45,23.28-19.07,35.07-28.33c11.88-9.33,24.6-17.97,37.71-25.48
											c12.82-7.35,26.99-10.58,40.66-15.89C816.47,289.89,817.78,293.51,815.47,294.41L815.47,294.41z"/>
									</g>
									<path class="st4" d="M812.97,293.36c3-1.32,8.29-0.84,10.72,1.43c2.85,2.66,0.24,5.23-2.85,5.83
										c-3.44,0.66-6.99-0.64-10.32-1.29c-3.46-0.68-7.21,0.09-10.46-1.04c1.99-1.56,5.78-2.5,8.2-3.12
										c2.57-0.66,4.95-1.92,7.47-2.6"/>
									<path class="st4" d="M806.82,296c5.31-1.87,13.13-1.27,16.84-6.43c2.43-3.38,1.58-6.44-2.75-6.81
										c-3.29-0.28-5.96,1.89-8.05,4.14c-2.67,2.86-5.85,6.48-7.84,9.75"/>
									<path class="st4" d="M792.17,299.28c1.93-6.14,4.17-13.94,10.1-17.63c3.7-2.3,4.42,2.21,3.51,4.78
										c-2.08,5.86-7.81,10.83-13,13.94L792.17,299.28z"/>
									<path class="st4" d="M778.36,305.1c1.17-7.77,2.41-17.6,8.88-23.17c4.03-3.47,5.75,1.84,5.13,5.11
										c-1.4,7.46-7.38,14.54-13.06,19.26L778.36,305.1z"/>
									<path class="st4" d="M748.93,323.59c-0.2-7.85-0.7-17.75,4.69-24.37c3.36-4.12,5.98,0.81,5.95,4.14
										c-0.08,7.59-4.73,15.6-9.5,21.24L748.93,323.59z"/>
									<path class="st4" d="M725.28,342.11c-2.7-8.89-6.38-20.01-2.31-29.24c2.54-5.75,7.07-0.96,8.08,2.85
										c2.3,8.68-0.48,19.27-4.15,27.19L725.28,342.11z"/>
									<path class="st4" d="M758.72,316.16c2.55-8.69,5.49-19.73,13.67-24.96c5.1-3.26,6.2,3.12,4.99,6.76
										c-2.76,8.3-10.62,15.34-17.78,19.74L758.72,316.16z"/>
									<path class="st4" d="M793.34,302.51c5.42,3.48,12.14,8.03,19.06,7.06c4.32-0.6,1.97-4.53-0.37-5.92
										c-5.35-3.17-12.94-3.31-18.91-2.36L793.34,302.51z"/>
									<path class="st4" d="M761.44,314.51c7.03,2.05,15.83,4.84,23.08,1.55c4.51-2.05,0.69-5.58-2.32-6.34
										c-6.86-1.73-15.19,0.56-21.4,3.52L761.44,314.51z"/>
									<path class="st4" d="M745.36,329.99c7.54,2.19,16.98,5.19,24.74,1.66c4.84-2.2,0.74-5.98-2.49-6.79
										c-7.36-1.85-16.28,0.6-22.94,3.77L745.36,329.99z"/>
									<path class="st4" d="M728.6,342.78c10.06,2.51,22.64,5.99,33.28,0.95c6.64-3.14,1.3-7.92-3.01-8.83
										c-9.83-2.07-21.99,1.61-31.13,6.12L728.6,342.78z"/>
									<path class="st4" d="M737.63,332.91c-1.72-4.82-4.33-9.02-4.51-14.25c-0.16-4.55,1.82-8.69,4.75-12.07
										c1.29-1.49,2.65-3.48,4.81-3.73c3.03-0.35,1.76,2.88,1.19,4.86c-1.21,4.2-2.2,8.55-2.95,12.84
										c-0.41,2.37-0.87,4.58-1.47,6.83c-0.4,1.49-0.39,4.44-1.03,5.44"/>
									<path class="st4" d="M748.09,348.99c-5.62,0.07-23.75,1.82-30.72,1.9c-1.59,1.27-3.21,2.52-4.85,3.77
										c11.37,2.75,30.11,4.56,35.06,3.38c2.14-0.51,6.57-2.36,7.34-4.55C756.29,349.54,750.54,348.96,748.09,348.99z"/>
									<path class="st4" d="M731.92,376.71c-6.75-1.5-28.94-4.5-37.3-6.35c-2.26,1.08-4.55,2.11-6.87,3.15
										c12.83,6.49,34.76,13.91,41.01,13.89c2.7-0.01,8.53-0.98,10.07-3.38C741.58,379.68,734.86,377.37,731.92,376.71z"/>
									<path class="st4" d="M708.57,356.6c-0.9-3.02-8.62-12-5.27-28.49c0.48-2.34,1.32-5.41,3.82-6.32
										c3.46-1.26,3.72,2.62,3.81,5.08c0.18,4.85-0.43,23.26,0.01,27.85"/>
									<path class="st4" d="M699.36,364.81c3.4,0.98,6.8,3.09,10.32,4.22c3.78,1.21,24.74,4.77,31.36,3.42
										c2.87-0.59,8.48-0.38,9.19-4.03c0.69-3.53-3.61-5.73-6.38-6.64c-6.44-2.12-36.85,0.02-44.59,1.65"/>
									<path class="st4" d="M696.56,366.03c-7.96-11.31-11.12-34.71-9.18-37.08c4.21-5.15,9.53,2.87,10.58,6.77
										c2.35,8.75,0.22,29.34-1.24,29.64"/>
								</g>
							</g>
						</g>
						<g>
							<path class="st3" d="M675.95,384.07c-5.25,4.3-11.99,9.74-17.45,13.73c-7.11,5.19-7.11,10.29-0.99,16.43
								c7.56,7.58,21.01,11.71,31.42,13.37c3.68,0.59,4.37,0.33,4.44-3.84c0.05-3.08-0.35-5.95-0.08-9.06
								c0.54-6.01,1.5-11.16,5.03-16.11c5.57-7.81,6.07,1.9,4.47,6.39c-1.86,5.24-3.1,10.9-3.15,16.57
								c-0.08,9.74,31.75-4.86,36.42-10.44c-3.64-2.77-7.9-14.21-5.07-18.69c2.49-3.94,3.56,0.38,4.1,2.99
								c0.62,3.01,0.91,5.85,2.7,8.35c7.31,10.2,22.55-16.75,25.41-22.29c3.77-7.3,8.11-8.36,15.7-8.67
								c-5.39-7.08-13.25-17.3-22.75-17.66c-4.61-0.18-8.53,3.1-12.15,5.48c-2.49,1.64-10.69,5.78-6.31-0.42
								c3.06-4.33,8.92-5.77,11.93-10.28c-2.45-3.06-10.93-8.68-15.03-7.76c-4.9,1.09-6.4,10.71-9.5,14.03
								c-3.47-5.9,3.2-11.78,5.5-16.61c-6.46-4.66-19.55-10.38-27.98-8.11c-12.29,3.3-0.84,19.2,1.48,21.84
								c1.71,1.94,4.42,5.46-0.18,3.93c-4.03-1.34-9.23-10.26-10.9-14.09c-0.82-1.87-0.96-7.21-2.68-8.38
								c-1.96-1.33-34.63,13.2-38.32,24.01C648.2,370.01,666.42,382.65,675.95,384.07z"/>
						</g>
					</g>
				</g>
				<g>
					<g>
						<g>
							<g>
								<path class="st2" d="M67.93,252.54c13.82-5.26,1.36-11.4-7.31-13.86c-7.02-1.98-24.59-5.22-17.46-17.19
									c7.47-12.54,14.63,2.95,20.57,4.7c13.28,3.91-0.54-12.75-3.84-17.19c-4.52-6.08-14.03-18.51-2.29-20.58
									c9.49-1.68,19.33,11.55,23.27,18.14c2.81,4.7,9.71,26.71,16.9,21.83c5.44-3.69-0.19-25.73,12.8-9.98
									c5.28,6.4,4.43,16.7,6.81,24.02c3.49,10.73,4.96,15.18,14.49,12.42c4.94-1.43,5.1-7.62,11.19-3.44
									c3.14,2.15,4.07,12.07,4.04,15.51c-0.24,31.63-12.9,52.81-18.86,55.54c-8.08,3.7-23.09-1.64-30-5.61
									c-3.43-1.97-9.7-5.23-9.26-10.23c0.5-5.61,9.16-4.8,9.48-8.1c0.91-9.35-16.29-0.42-21.05-1.75
									c-6.17-1.73-16.38-12.74-9.91-18.57c0.66-0.6,27.55-2.54,12.17-11.1c-8.51-4.74-17.64,8.41-25.86-0.92
									C41.98,252.76,62.75,254.51,67.93,252.54z"/>
							</g>
							<path class="st3" d="M70.22,257.52c5.94-2.51,12.07-4.77,18.54-5.32c-4.55-5.68-9.31-11.31-12.78-17.61
								c-0.98-1.78,1.93-3.01,2.9-1.24c0.42,0.77,0.89,1.52,1.35,2.27c0.5-1.93-0.1-4.81-0.28-6.35c-0.47-3.97-1.96-7.54-3.53-11.18
								c-0.8-1.87,2.1-3.11,2.9-1.24c2.03,4.73,3.63,9.24,3.98,14.41c0.18,2.54,0.33,5.29-1.15,7.39
								c4.89,7.25,10.98,13.93,16.08,20.97c2.18-3.45,3.78-7.05,4.52-11.14c0.8-4.45,0.26-8.98,0.72-13.47
								c0.21-2.02,3.34-1.63,3.13,0.39c-0.56,5.39,0.08,10.69-1.28,16.01c-1.02,4.01-2.85,7.55-5.13,10.97
								c5.86,8.47,11.27,17.28,15.72,26.57c1.48,3.09,2.83,6.24,4.13,9.4c2.94-4.4,5.38-8.99,7.08-14.04
								c0.94-2.81,1.99-5.79,2.37-8.73c0.29-2.23,0.05-4.34,0.93-6.45c0.78-1.88,3.71-0.71,2.93,1.17
								c-1.08,2.59-0.71,5.97-1.39,8.74c-0.66,2.67-1.47,5.33-2.4,7.92c-1.9,5.3-4.7,10.12-7.92,14.72
								c-0.05,0.07-0.11,0.09-0.16,0.15c2.2,5.47,4.36,10.97,6.81,16.32c0.2,0.15,0.37,0.35,0.48,0.64c0.24,0.6,0.7,1.43,0.86,2.16
								c4.38,11.06,8.8,22.11,13.04,33.22c0.72,1.89-2.18,3.14-2.9,1.24c-4.23-11.07-8.62-22.08-12.99-33.1
								c-0.03-0.05-0.06-0.08-0.09-0.13c-1.4-2.89-2.69-5.83-3.93-8.79c-5.74,1.46-12.12-0.22-17.48-2.37
								c-1.89-0.76-0.71-3.69,1.17-2.93c4.66,1.87,10.05,3.32,15.08,2.33c-2.76-6.78-5.36-13.63-8.51-20.23
								c-1.25-2.63-2.59-5.21-3.99-7.75c-0.1,0.07-0.19,0.16-0.32,0.21c-7.83,3.18-16.27,4.45-24.65,3.13
								c-2-0.31-1.62-3.45,0.39-3.13c7.85,1.23,15.68,0.08,23.02-2.9c0.02-0.01,0.03,0,0.04-0.01c-4.31-7.52-9.17-14.72-14.27-21.73
								c-0.87-1.19-1.77-2.37-2.69-3.54c-0.18,0.43-0.55,0.78-1.18,0.83c-6.27,0.5-12.16,2.68-17.91,5.11
								C69.59,261.21,68.35,258.31,70.22,257.52z"/>
						</g>
						<g>
							<g>
								<g>
									<g>
										<path class="st4" d="M9.53,294.41c13.95,5.42,28.22,8.69,41.29,16.3c12.55,7.32,24.74,15.62,36.17,24.59
											c10.53,8.27,20.61,17.04,31.18,25.27c12.34,9.6,21.04,21.27,31.58,32.56c1.69,1.81,4.66-0.65,2.97-2.47
											c-9.56-10.24-17.46-21.29-28.43-30.18c-11.65-9.45-23.28-19.07-35.07-28.33c-11.88-9.33-24.6-17.97-37.71-25.48
											c-12.82-7.35-26.99-10.58-40.66-15.89C8.53,289.89,7.22,293.51,9.53,294.41L9.53,294.41z"/>
									</g>
									<path class="st4" d="M12.03,293.36c-3-1.32-8.29-0.84-10.72,1.43c-2.85,2.66-0.24,5.23,2.85,5.83
										c3.44,0.66,6.99-0.64,10.32-1.29c3.46-0.68,7.21,0.09,10.46-1.04c-1.99-1.56-5.78-2.5-8.2-3.12
										c-2.57-0.66-4.95-1.92-7.47-2.6"/>
									<path class="st4" d="M18.18,296c-5.31-1.87-13.13-1.27-16.84-6.43c-2.43-3.38-1.58-6.44,2.75-6.81
										c3.29-0.28,5.96,1.89,8.05,4.14c2.67,2.86,5.85,6.48,7.84,9.75"/>
									<path class="st4" d="M32.83,299.28c-1.93-6.14-4.17-13.94-10.1-17.63c-3.7-2.3-4.42,2.21-3.51,4.78
										c2.08,5.86,7.81,10.83,13,13.94L32.83,299.28z"/>
									<path class="st4" d="M46.64,305.1c-1.17-7.77-2.41-17.6-8.88-23.17c-4.03-3.47-5.75,1.84-5.13,5.11
										c1.4,7.46,7.38,14.54,13.06,19.26L46.64,305.1z"/>
									<path class="st4" d="M76.07,323.59c0.2-7.85,0.7-17.75-4.69-24.37c-3.36-4.12-5.98,0.81-5.95,4.14
										c0.08,7.59,4.73,15.6,9.5,21.24L76.07,323.59z"/>
									<path class="st4" d="M99.72,342.11c2.7-8.89,6.38-20.01,2.31-29.24c-2.54-5.75-7.07-0.96-8.08,2.85
										c-2.3,8.68,0.48,19.27,4.15,27.19L99.72,342.11z"/>
									<path class="st4" d="M66.28,316.16c-2.55-8.69-5.49-19.73-13.67-24.96c-5.1-3.26-6.2,3.12-4.99,6.76
										c2.76,8.3,10.62,15.34,17.78,19.74L66.28,316.16z"/>
									<path class="st4" d="M31.66,302.51c-5.42,3.48-12.14,8.03-19.06,7.06c-4.32-0.6-1.97-4.53,0.37-5.92
										c5.35-3.17,12.94-3.31,18.91-2.36L31.66,302.51z"/>
									<path class="st4" d="M63.56,314.51c-7.03,2.05-15.83,4.84-23.08,1.55c-4.51-2.05-0.69-5.58,2.32-6.34
										c6.86-1.73,15.19,0.56,21.4,3.52L63.56,314.51z"/>
									<path class="st4" d="M79.64,329.99c-7.54,2.19-16.98,5.19-24.74,1.66c-4.84-2.2-0.74-5.98,2.49-6.79
										c7.36-1.85,16.28,0.6,22.94,3.77L79.64,329.99z"/>
									<path class="st4" d="M96.4,342.78c-10.06,2.51-22.64,5.99-33.28,0.95c-6.64-3.14-1.3-7.92,3.01-8.83
										c9.83-2.07,21.99,1.61,31.13,6.12L96.4,342.78z"/>
									<path class="st4" d="M87.37,332.91c1.72-4.82,4.33-9.02,4.51-14.25c0.16-4.55-1.82-8.69-4.75-12.07
										c-1.29-1.49-2.65-3.48-4.81-3.73c-3.03-0.35-1.76,2.88-1.19,4.86c1.21,4.2,2.2,8.55,2.95,12.84
										c0.41,2.37,0.87,4.58,1.47,6.83c0.4,1.49,0.39,4.44,1.03,5.44"/>
									<path class="st4" d="M76.91,348.99c5.62,0.07,23.75,1.82,30.72,1.9c1.59,1.27,3.21,2.52,4.85,3.77
										c-11.37,2.75-30.11,4.56-35.06,3.38c-2.14-0.51-6.57-2.36-7.34-4.55C68.71,349.54,74.46,348.96,76.91,348.99z"/>
									<path class="st4" d="M93.08,376.71c6.75-1.5,28.94-4.5,37.3-6.35c2.26,1.08,4.55,2.11,6.87,3.15
										c-12.83,6.49-34.76,13.91-41.01,13.89c-2.7-0.01-8.53-0.98-10.07-3.38C83.42,379.68,90.14,377.37,93.08,376.71z"/>
									<path class="st4" d="M116.43,356.6c0.9-3.02,8.62-12,5.27-28.49c-0.48-2.34-1.32-5.41-3.82-6.32
										c-3.46-1.26-3.72,2.62-3.81,5.08c-0.18,4.85,0.43,23.26-0.01,27.85"/>
									<path class="st4" d="M125.64,364.81c-3.4,0.98-6.8,3.09-10.32,4.22c-3.78,1.21-24.74,4.77-31.36,3.42
										c-2.87-0.59-8.48-0.38-9.19-4.03c-0.69-3.53,3.61-5.73,6.38-6.64c6.44-2.12,36.85,0.02,44.59,1.65"/>
									<path class="st4" d="M128.44,366.03c7.96-11.31,11.12-34.71,9.18-37.08c-4.21-5.15-9.53,2.87-10.58,6.77
										c-2.35,8.75-0.22,29.34,1.24,29.64"/>
								</g>
							</g>
						</g>
						<g>
							<path class="st3" d="M149.05,384.07c5.25,4.3,11.99,9.74,17.45,13.73c7.11,5.19,7.11,10.29,0.99,16.43
								c-7.56,7.58-21.01,11.71-31.42,13.37c-3.68,0.59-4.37,0.33-4.44-3.84c-0.05-3.08,0.35-5.95,0.08-9.06
								c-0.54-6.01-1.5-11.16-5.03-16.11c-5.57-7.81-6.07,1.9-4.47,6.39c1.86,5.24,3.1,10.9,3.15,16.57
								c0.08,9.74-31.75-4.86-36.42-10.44c3.64-2.77,7.9-14.21,5.07-18.69c-2.49-3.94-3.56,0.38-4.1,2.99
								c-0.62,3.01-0.91,5.85-2.7,8.35c-7.31,10.2-22.55-16.75-25.41-22.29c-3.77-7.3-8.11-8.36-15.7-8.67
								c5.39-7.08,13.25-17.3,22.75-17.66c4.61-0.18,8.53,3.1,12.15,5.48c2.49,1.64,10.69,5.78,6.31-0.42
								c-3.06-4.33-8.92-5.77-11.93-10.28c2.45-3.06,10.93-8.68,15.03-7.76c4.9,1.09,6.4,10.71,9.5,14.03
								c3.47-5.9-3.2-11.78-5.5-16.61c6.46-4.66,19.55-10.38,27.98-8.11c12.29,3.3,0.84,19.2-1.48,21.84
								c-1.71,1.94-4.42,5.46,0.18,3.93c4.03-1.34,9.23-10.26,10.9-14.09c0.82-1.87,0.96-7.21,2.68-8.38
								c1.96-1.33,34.63,13.2,38.32,24.01C176.8,370.01,158.58,382.65,149.05,384.07z"/>
						</g>
					</g>
				</g>
			</g>
			<g>
				<g>
					<g>
						<path class="st2" d="M138.39,433.99V210.98h149.88v38.01H181.75v57.48h88.61v35.49h-88.61v92.03H138.39z"/>
						<path class="st2" d="M379.39,210.98h43.99l82.01,223.01h-44.62l-18.54-55.6h-81.91l-18.64,55.6h-44.62L379.39,210.98z
							 M432.07,347.93l-30.69-92.03l-30.85,92.03H432.07z"/>
						<path class="st2" d="M625.1,435.56c-16.34,0-31.11-3.19-44.3-9.58c-13.2-6.38-24.62-14.92-34.25-25.6
							c-9.64-10.68-17.08-22.77-22.31-36.28c-5.24-13.51-7.86-27.38-7.86-41.62c0-14.87,2.77-29.05,8.33-42.56
							c5.55-13.51,13.2-25.54,22.94-36.12c9.74-10.57,21.31-18.95,34.72-25.13c13.4-6.17,27.97-9.27,43.68-9.27
							c16.13,0,30.84,3.25,44.15,9.74c13.3,6.49,24.67,15.18,34.09,26.07c9.43,10.89,16.7,23.04,21.84,36.43
							c5.13,13.4,7.7,27.22,7.7,41.46c0,14.66-2.67,28.74-8.01,42.25c-5.34,13.51-12.88,25.55-22.62,36.12
							c-9.74,10.58-21.26,18.9-34.56,24.97C655.32,432.53,640.81,435.56,625.1,435.56z M625.42,397.24c10.68,0,20-2.15,27.96-6.44
							c7.96-4.29,14.71-10,20.27-17.12c5.55-7.12,9.69-15.18,12.41-24.19c2.72-9,4.08-18.01,4.08-27.01c0-9.63-1.47-18.95-4.4-27.96
							c-2.94-9-7.23-16.96-12.88-23.87s-12.47-12.46-20.42-16.65c-7.96-4.19-17.08-6.28-27.34-6.28c-10.27,0-19.43,2.15-27.49,6.44
							c-8.07,4.29-14.88,10-20.42,17.12c-5.55,7.12-9.74,15.13-12.57,24.03c-2.83,8.9-4.24,17.96-4.24,27.17
							c0,9.63,1.46,18.95,4.4,27.96c2.93,9.01,7.17,16.96,12.73,23.87c5.55,6.91,12.36,12.46,20.42,16.65
							C605.99,395.15,615.15,397.24,625.42,397.24z M621.02,351.7h40.85l73.53,82.29h-41.16L621.02,351.7z"/>
					</g>
				</g>
				<g>
					<g>
						<path class="st5" d="M126.37,433.99V210.98h149.88v38.01H169.73v57.48h88.61v35.49h-88.61v92.03H126.37z"/>
						<path class="st5" d="M367.37,210.98h43.99l82.01,223.01h-44.62l-18.54-55.6H348.3l-18.64,55.6h-44.62L367.37,210.98z
							 M420.05,347.93l-30.69-92.03l-30.85,92.03H420.05z"/>
						<path class="st5" d="M613.09,435.56c-16.34,0-31.11-3.19-44.3-9.58c-13.2-6.38-24.62-14.92-34.25-25.6
							c-9.64-10.68-17.08-22.77-22.31-36.28c-5.24-13.51-7.86-27.38-7.86-41.62c0-14.87,2.77-29.05,8.33-42.56
							c5.55-13.51,13.2-25.54,22.94-36.12c9.74-10.57,21.31-18.95,34.72-25.13c13.4-6.17,27.97-9.27,43.68-9.27
							c16.13,0,30.84,3.25,44.15,9.74c13.3,6.49,24.67,15.18,34.09,26.07c9.43,10.89,16.7,23.04,21.84,36.43
							c5.13,13.4,7.7,27.22,7.7,41.46c0,14.66-2.67,28.74-8.01,42.25c-5.34,13.51-12.88,25.55-22.62,36.12
							c-9.74,10.58-21.26,18.9-34.56,24.97C643.3,432.53,628.8,435.56,613.09,435.56z M613.4,397.24c10.68,0,20-2.15,27.96-6.44
							c7.96-4.29,14.71-10,20.27-17.12c5.55-7.12,9.69-15.18,12.41-24.19c2.72-9,4.08-18.01,4.08-27.01c0-9.63-1.47-18.95-4.4-27.96
							c-2.94-9-7.23-16.96-12.88-23.87s-12.47-12.46-20.42-16.65c-7.96-4.19-17.08-6.28-27.34-6.28c-10.27,0-19.43,2.15-27.49,6.44
							c-8.07,4.29-14.88,10-20.42,17.12c-5.55,7.12-9.74,15.13-12.57,24.03c-2.83,8.9-4.24,17.96-4.24,27.17
							c0,9.63,1.46,18.95,4.4,27.96c2.93,9.01,7.17,16.96,12.73,23.87c5.55,6.91,12.36,12.46,20.42,16.65
							C593.97,395.15,603.13,397.24,613.4,397.24z M609,351.7h40.85l73.53,82.29h-41.16L609,351.7z"/>
					</g>
				</g>
			</g>
			<g>
				<g>
					<path class="st6" d="M169.16,393.03c0.08-0.1,0.16-0.2,0.24-0.31c1.39-1.96,1.61-4.53,0.53-6.7c-0.47-0.96-0.51-2.08-0.1-3.07
						l0.14-0.33c1.05-2.53-0.81-3.38-3.52-3.84c0,0-3.49-2.25-3.65-2.55l-1.69,4.17c0.08,0.26,3,1.17,3.15,1.31l2.7,10.84
						C167.21,393.55,168.51,393.84,169.16,393.03z"/>
					
						<linearGradient id="SVGID_1_" gradientUnits="userSpaceOnUse" x1="141.2499" y1="339.1682" x2="124.4858" y2="396.4906" gradientTransform="matrix(0.9992 -0.0411 0.0411 0.9992 -9.2023 8.3242)">
						<stop  offset="0" style="stop-color:#EE4921"/>
						<stop  offset="0.1586" style="stop-color:#F05530"/>
						<stop  offset="0.4284" style="stop-color:#F46443"/>
						<stop  offset="0.7057" style="stop-color:#F56D4E"/>
						<stop  offset="1" style="stop-color:#F67052"/>
					</linearGradient>
					<path class="st7" d="M131.2,317.56l-14.11,31.77c-1.86,4.18-2.16,8.22-0.82,11.3c3.59,8.29,46.89,20.5,46.89,20.5l0.09-4.54
						l-29.79-23.38l19.9-32.32L131.2,317.56z"/>
				</g>
				<g>
					<path class="st6" d="M151.04,433.5l-0.36-0.03c-1.06-0.08-2.12,0.29-2.88,1.04c-1.74,1.69-5.95,1.33-8.24,0.61
						c-0.12-0.03-0.24-0.08-0.36-0.12c-0.97-0.36-1.1-1.69-0.22-2.24l8.79-5.95c0.01-0.04,0.01-0.18-0.01-0.42l4.8,0.51
						c0.11,0.57,0.2,0.96,0.2,0.96C153.15,430.58,153.77,433.72,151.04,433.5z"/>
					<linearGradient id="SVGID_2_" gradientUnits="userSpaceOnUse" x1="140.2121" y1="373.8626" x2="166.0695" y2="373.8626">
						<stop  offset="0" style="stop-color:#EE4921"/>
						<stop  offset="0.1586" style="stop-color:#F05530"/>
						<stop  offset="0.4284" style="stop-color:#F46443"/>
						<stop  offset="0.7057" style="stop-color:#F56D4E"/>
						<stop  offset="1" style="stop-color:#F67052"/>
					</linearGradient>
					<path class="st8" d="M166.07,323.87c-9.75,27.9-13.72,62.88-13.46,103.04l-0.06-0.01l-4.8-0.51l-0.16-0.02
						c-8.29-29.09-10.06-59.28-2.91-91.13l4.43-14.44L166.07,323.87z"/>
				</g>
				<g>
					
						<linearGradient id="SVGID_3_" gradientUnits="userSpaceOnUse" x1="145.9529" y1="316.2217" x2="145.9529" y2="259.1148" gradientTransform="matrix(0.9992 -0.0411 0.0411 0.9992 -9.2023 8.3242)">
						<stop  offset="0" style="stop-color:#170C4A"/>
						<stop  offset="0.9838" style="stop-color:#5255EE"/>
					</linearGradient>
					<path class="st9" d="M129.51,321.36l36.57,3.01l0.04-1.5c0.11-4.78-0.68-9.5-2.01-14.09c-1.37-4.71-1.51-9.71-0.39-14.55
						l4.1-17.71c1.02-4.37-1.14-8.87-5.19-10.82l-4.7-2.27l-3.54-1.72l-0.56-0.27l-9.44,0.28l-0.44,0.15l-3.79,1.33l-4.87,1.7
						c-4.56,1.6-7.23,6.32-6.24,11.05l4.26,20.26c1.14,5.43,0.69,11.06-1.28,16.24L129.51,321.36z"/>
					<path class="st10" d="M144.14,266.8c0.09,3.19,2.38,5.71,5.08,5.63c2.71-0.07,4.82-2.73,4.74-5.92
						c-0.02-0.37,0.41-4.81,0.41-4.81l-0.56-0.27l-9.44,0.28l-0.44,0.15C143.94,261.87,144.13,266.29,144.14,266.8z"/>
				</g>
				<g>
					<g>
						<path class="st11" d="M152.48,305.79l-8.09,0.23c-0.43,0.01-0.76,0.37-0.75,0.79l0.36,12.31c0.01,0.43,0.37,0.76,0.79,0.75
							l8.09-0.23c0.43-0.01,0.76-0.37,0.75-0.79l-0.36-12.31C153.26,306.11,152.91,305.78,152.48,305.79z"/>
					</g>
				</g>
				<path class="st12" d="M146.4,308.45c0,0.36-0.29,0.66-0.66,0.66c-0.36,0-0.66-0.29-0.66-0.66c0-0.36,0.29-0.66,0.66-0.66
					C146.1,307.79,146.4,308.08,146.4,308.45z"/>
				<g>
					<path class="st13" d="M135.63,255.16c0.61,2.31,2.39,3,4.05,3.41c0.63,1.22,1.46,2.41,2.41,3.46c0.24,0.27,0.49,0.54,0.74,0.78
						c1.33,1.47,3.01,2.54,4.91,2.94c0.05,0.01,0.1,0.02,0.17,0.03c0.1,0.02,0.21,0.06,0.33,0.08c0.08,0.01,0.16,0.01,0.22,0
						c0.07,0.01,0.13,0.02,0.19,0.02c0.14,0.01,0.3,0.01,0.44,0.01c0.14-0.01,0.3-0.01,0.44-0.03c0.06,0,0.13-0.02,0.19-0.02
						c0.08-0.02,0.15-0.02,0.22-0.03c0.12-0.02,0.22-0.06,0.33-0.09c0.05,0,0.1-0.02,0.17-0.03c1.87-0.52,3.49-1.68,4.72-3.23
						c0.66-0.71,1.27-1.51,1.79-2.35c0.44-0.66,0.81-1.35,1.12-2.05c1.62-0.52,3.36-1.3,3.83-3.65c0.36-1.85-0.2-4.27-1.74-4.35
						c-0.45-0.03-0.98,0.16-1.48,0.47c-0.76-3.06-2.47-6.3-4.54-8.49c-0.86-1.09-1.85-1.8-2.91-2.21c-0.58-0.26-1.16-0.42-1.73-0.46
						c-0.4-0.02-0.79-0.02-1.18,0c-0.39,0-0.77,0.03-1.16,0.07c-0.58,0.06-1.14,0.27-1.71,0.56c-1.03,0.47-1.97,1.22-2.77,2.36
						c-1.93,2.32-3.47,5.64-4.05,8.74c-0.52-0.29-1.04-0.45-1.5-0.39C135.6,250.9,135.17,253.33,135.63,255.16z"/>
					<g>
						<path class="st13" d="M142.08,262.03c0.24,0.27,0.49,0.54,0.74,0.78c1.33,1.47,3.01,2.54,4.91,2.94
							c0.05,0.01,0.1,0.02,0.17,0.03c0.1,0.02,0.21,0.06,0.33,0.08c0.08,0.01,0.16,0.01,0.22,0c0.07,0.01,0.13,0.02,0.19,0.02
							c0.14,0.01,0.3,0.01,0.44,0.01c0.14-0.01,0.3-0.01,0.44-0.03c0.06,0,0.13-0.02,0.19-0.02c0.08-0.02,0.15-0.02,0.22-0.03
							c0.12-0.02,0.22-0.06,0.33-0.09c0.05,0,0.1-0.02,0.17-0.03c1.87-0.52,3.49-1.68,4.72-3.23c0.66-0.71,1.27-1.51,1.79-2.35
							c-0.43-0.76-1.12-1.44-1.96-1.86c-0.92-0.45-1.99-0.63-3.03-0.78c-1.44-0.23-2.92-0.29-4.39-0.12
							c-1.97,0.25-4.62,1.6-5.19,3.33C142.2,261.15,142.1,261.6,142.08,262.03z"/>
					</g>
					<g>
						<path class="st4" d="M153.19,253.56c0.08,0.55-0.25,1.06-0.75,1.13c-0.5,0.08-0.97-0.31-1.06-0.86
							c-0.08-0.55,0.25-1.06,0.75-1.13C152.63,252.63,153.1,253.01,153.19,253.56z"/>
						<path class="st4" d="M145,253.81c0.07,0.48-0.22,0.93-0.66,0.99c-0.44,0.07-0.85-0.27-0.92-0.75
							c-0.07-0.48,0.22-0.93,0.66-0.99C144.51,252.99,144.92,253.33,145,253.81z"/>
						<g>
							<g>
								<path class="st4" d="M154.02,251.37c-0.12,0.02-0.24-0.02-0.31-0.12c-1.17-1.6-2.66-0.66-2.73-0.62
									c-0.14,0.09-0.34,0.05-0.43-0.09c-0.09-0.14-0.05-0.34,0.09-0.43c0.71-0.46,2.36-0.89,3.57,0.77
									c0.1,0.14,0.07,0.33-0.07,0.44C154.1,251.35,154.06,251.36,154.02,251.37z"/>
							</g>
						</g>
						<g>
							<g>
								<path class="st4" d="M149.15,260.46c0.03-0.11,0.13-0.2,0.25-0.22c1.96-0.31,1.8-2.07,1.8-2.14
									c-0.02-0.17,0.11-0.32,0.28-0.34c0.17-0.02,0.32,0.11,0.34,0.28c0.09,0.84-0.29,2.51-2.32,2.82
									c-0.17,0.03-0.33-0.09-0.36-0.26C149.13,260.55,149.14,260.5,149.15,260.46z"/>
							</g>
						</g>
						<g>
							<g>
								<path class="st4" d="M145.31,251.46c-0.07,0.07-0.17,0.1-0.27,0.07c-1.58-0.52-2.14,0.86-2.16,0.92
									c-0.05,0.13-0.2,0.2-0.34,0.15c-0.13-0.05-0.2-0.2-0.15-0.34c0.26-0.66,1.17-1.76,2.81-1.23c0.14,0.05,0.21,0.19,0.17,0.33
									C145.36,251.41,145.34,251.44,145.31,251.46z"/>
							</g>
						</g>
						<g>
							<path class="st4" d="M147.54,258.96c-0.22,0.01-0.42-0.05-0.6-0.16c-0.58-0.35-0.75-1.2-0.45-2.26l0.64-3.52
								c0.02-0.14,0.15-0.23,0.29-0.2c0.14,0.02,0.23,0.16,0.2,0.29l-0.65,3.54c-0.28,1-0.07,1.54,0.22,1.72
								c0.3,0.18,0.74,0.06,1.14-0.31c0.1-0.09,0.27-0.1,0.36,0c0.09,0.1,0.1,0.24,0.01,0.34
								C148.33,258.77,147.92,258.95,147.54,258.96z"/>
						</g>
					</g>
				</g>
				<path class="st13" d="M160,313.67l-1.33,1.08c-1.28,1.04-2.86,1.64-4.51,1.68l-4.19,0.12c-1.44,0.04-2.49-1.37-2.1-2.78
					c0.25-0.92,1.05-1.55,1.98-1.58c0.06,0,0.13,0,0.19,0.01l3.25,0.21c0,0-0.04-1.48-0.06-2.25l2.39,1.86l1.9-1.97L160,313.67z"/>
				
					<linearGradient id="SVGID_4_" gradientUnits="userSpaceOnUse" x1="164.0383" y1="316.2217" x2="164.0383" y2="259.1151" gradientTransform="matrix(0.9992 -0.0411 0.0411 0.9992 -9.2023 8.3242)">
					<stop  offset="0" style="stop-color:#170C4A"/>
					<stop  offset="0.9838" style="stop-color:#5255EE"/>
				</linearGradient>
				<path class="st14" d="M174.98,301.55L160,313.67l-2.48-3.62l10.76-11.19c0.08-0.07,0.11-0.17,0.15-0.27l-1.53-4.51l-4.47-13.06
					l-5.93-15.14c-0.56-1.42,0.83-2.84,2.25-2.3c4.79,1.79,8.12,4.65,9.92,10l6.07,17.51l1.75,5.18l0.01,0
					C177.14,298.19,176.53,300.29,174.98,301.55z"/>
				<g>
					<g>
						<g>
							<path class="st13" d="M122.52,325.51c0.2,3.47-0.31,5.05-1.34,7.9c-0.91,0.02-0.95-1.48-1.13-2.15
								c-0.03-0.13-0.13-0.37-0.17-0.51c-0.8,0.68-1.14,1.66-1.49,2.58c-0.35,0.92-0.25,2.67-0.84,3.3
								c-0.58,0.62-0.69,1.63-1.99-0.09c-2.2-2.93-0.17-7.86,3.25-10.07c-0.33-1.92-0.63-3.58-0.9-5.08l4.2,0.21
								c0.02,0.37,0.05,0.7,0.08,0.99C122.74,326.62,122.45,324.21,122.52,325.51z"/>
						</g>
					</g>
					
						<linearGradient id="SVGID_5_" gradientUnits="userSpaceOnUse" x1="126.2642" y1="316.2215" x2="126.2642" y2="259.115" gradientTransform="matrix(0.9992 -0.0411 0.0411 0.9992 -9.2023 8.3242)">
						<stop  offset="0" style="stop-color:#170C4A"/>
						<stop  offset="0.9838" style="stop-color:#5255EE"/>
					</linearGradient>
					<path class="st15" d="M140.48,264.34c-0.1,3.42-0.36,6.71-0.73,10.1c-5.6,8.24-10.6,16.11-13.58,25.7
						c-0.02,0.13-0.08-0.17-0.06,0.23c-2.97,4.95-4.26,16.38-4,21.23l-4.2-0.21c-1-5.6-1.46-9.18-0.18-16.93
						c1.63-9.85,6.11-24.61,11.64-33.62c2.9-4.71,5.49-6.13,10.39-6.57C140.25,264.23,140.07,264.37,140.48,264.34z"/>
				</g>
				<g>
					<path class="st6" d="M159.9,244.89c-0.32-1.71-0.82-3.97-1.92-5.38c-1.17-1.49-3.77-2.86-5.64-3.17
						c-1.18-0.19-2.38-0.1-3.58-0.16c-2.33-0.11-4.52-0.74-6.78-1.03c-0.39,0.79,0.56,1.88,1.14,2.31
						c-1.95,1.01-4.73,0.49-7.07-0.13c1.21,3.84,3.7,3.91,4.43,4.74c-1.78,1.12-5.03,0.72-7.43-1.39c1.18,9.44,4.47,8.51,5.18,10.35
						c-0.23,1.6,0.57,4.26,1.66,5.12c0.93-0.98,0.9-3.61,1.17-4.92c0.29-1.4,0.82-2.63,1.28-3.97c-0.21,1.15,2.14,1.69,2.97,1.74
						c1.11,0.07,2.29,0,3.35-0.25c-0.97-0.94-1-1.52-1.05-2.84c1.05,1.63,5.1,3.59,7,2.86c-0.5-0.7-0.93-1.36-1.06-2.22
						c1.32,1.23,3.58,2.05,4.32,3.73c0.82,1.83,0.85,3.88,0.82,5.86c0.55-1.66,0.61-3.57,1.02-5.31
						C160.19,248.88,160.28,246.91,159.9,244.89z"/>
				</g>
			</g>
			<g>
				<g>
					<g>
						<path class="st6" d="M224.27,118c-0.22-2.1-0.5-4.59-2.38-5.4c-4.17-1.8-10.42,12.26-10.32,15.03
							c0.06,1.73,0.47,2.48,1.43,3.75c0.98,1.3,1.4,1.49,0.34,2.74c-2.27,2.69-7.75,7.7-3.8,11.5c-1.28,1.44-3.46,1.98-4.93,3.34
							c-1.32,1.22-3.02,3.72-3.18,5.83c1.58-0.32,3.2-1.58,4.83-2.03c1.94-0.53,4-0.77,5.99-1.17c3.04-0.61,9.22-1.18,10.93-4.89
							c0.89-1.92,0.77-5.25,0.88-7.46c0.21-4.26,0.92-8.48,0.84-12.78C224.85,123.65,224.56,120.76,224.27,118z"/>
					</g>
					<g>
						<path class="st6" d="M227.18,118c0.22-2.1,0.5-4.59,2.38-5.4c4.17-1.8,10.42,12.26,10.32,15.03
							c-0.06,1.73-0.47,2.48-1.43,3.75c-0.98,1.3-1.4,1.49-0.34,2.74c2.27,2.69,7.75,7.7,3.8,11.5c1.28,1.44,3.46,1.98,4.93,3.34
							c1.32,1.22,3.02,3.72,3.18,5.83c-1.58-0.32-3.2-1.58-4.83-2.03c-1.94-0.53-4-0.77-5.99-1.17c-3.04-0.61-9.22-1.18-10.93-4.89
							c-0.89-1.92-0.77-5.25-0.88-7.46c-0.21-4.26-0.92-8.48-0.84-12.78C226.6,123.65,226.89,120.76,227.18,118z"/>
					</g>
					<linearGradient id="SVGID_6_" gradientUnits="userSpaceOnUse" x1="247.4035" y1="181.0026" x2="247.4035" y2="129.6942">
						<stop  offset="0" style="stop-color:#EE4921"/>
						<stop  offset="0.1586" style="stop-color:#F05530"/>
						<stop  offset="0.4284" style="stop-color:#F46443"/>
						<stop  offset="0.7057" style="stop-color:#F56D4E"/>
						<stop  offset="1" style="stop-color:#F67052"/>
					</linearGradient>
					<path class="st16" d="M233.92,143.95c0,0,6.89-2.28,12.71,6.87c2.75,4.32,5.66,8.54,8.96,12.47l4.25,5.06
						c2.15,2.56,0.84,6.5-2.42,7.25l0,0l-20.66-16.29L233.92,143.95z"/>
					<linearGradient id="SVGID_7_" gradientUnits="userSpaceOnUse" x1="204.3926" y1="181.0026" x2="204.3926" y2="129.6942">
						<stop  offset="0" style="stop-color:#EE4921"/>
						<stop  offset="0.1586" style="stop-color:#F05530"/>
						<stop  offset="0.4284" style="stop-color:#F46443"/>
						<stop  offset="0.7057" style="stop-color:#F56D4E"/>
						<stop  offset="1" style="stop-color:#F67052"/>
					</linearGradient>
					<path class="st17" d="M217.88,144.29c0,0-6.89-2.28-12.71,6.87c-2.75,4.32-5.66,8.54-8.96,12.46l-4.25,5.06
						c-2.15,2.56-0.84,6.49,2.42,7.25l0,0l20.66-16.29L217.88,144.29z"/>
					<linearGradient id="SVGID_8_" gradientUnits="userSpaceOnUse" x1="196.358" y1="200.4777" x2="253.825" y2="200.4777">
						<stop  offset="0" style="stop-color:#170C4A"/>
						<stop  offset="0.9838" style="stop-color:#5255EE"/>
					</linearGradient>
					<polygon class="st18" points="207.36,192.65 196.36,192.65 214.01,208.05 231.01,209.28 253.82,192.09 240.77,191.68 					"/>
					<path class="st10" d="M232.42,143.09l5.12,10.86c-1.28,3.28-21.31,4.56-22.81,1.37l3.94-11.79l1.24-0.15
						c1.58-0.36,2.33-0.97,2.68-2.55c0-0.01,0-0.01,0-0.01c0.21-1.51,0.07-2.7-0.41-3.6l6.97-1.66l0.26,2.83
						c0.09,1.01,0.15,2.04,0.18,3.05c0,0.01,0,0.01,0,0.01c0.01,0.74,0.56,1.36,1.3,1.43L232.42,143.09z"/>
					<g>
						<g>
							<linearGradient id="SVGID_9_" gradientUnits="userSpaceOnUse" x1="239.6154" y1="188.9238" x2="239.3316" y2="220.1346">
								<stop  offset="0" style="stop-color:#170C4A"/>
								<stop  offset="0.9838" style="stop-color:#5255EE"/>
							</linearGradient>
							<path class="st19" d="M261.34,201.69c-0.7,3.07-3.11,5.29-5.99,5.9c-0.27,0.05-0.52,0.1-0.78,0.12
								c-9.95,2.74-20.88,4.67-32.66,5.95l-4.49-5.93c12.81-4.21,24.25-8.67,32.98-14.8c1.53-0.72,3.29-0.97,5.05-0.56
								C259.66,193.32,262.29,197.5,261.34,201.69z"/>
							<path class="st6" d="M221.92,213.67c-3.29,0.36-6.65,0.66-10.06,0.92l-5.78,5.37c-0.05,0.04-0.11,0.1-0.17,0.14
								c-2.6,2.05-6.36-0.32-5.79-3.58l0.34-1.93c0-0.01,0.01-0.03,0.01-0.03c0.68-1.9,2.38-3.24,4.35-3.6l6-1.09
								c2.24-0.71,4.44-1.41,6.6-2.13L221.92,213.67z"/>
						</g>
						<g>
							<linearGradient id="SVGID_10_" gradientUnits="userSpaceOnUse" x1="208.6386" y1="188.6796" x2="208.3573" y2="219.6192">
								<stop  offset="0" style="stop-color:#170C4A"/>
								<stop  offset="0.9838" style="stop-color:#5255EE"/>
							</linearGradient>
							<path class="st20" d="M229.52,206.64c-0.92,1.81-2.17,4.34-3.11,6.25c-12.35-1.46-23.59-3.21-31.95-5.68
								c-0.27-0.03-0.52-0.07-0.78-0.13c-2.88-0.6-5.29-2.83-6-5.89c-0.94-4.2,1.69-8.38,5.89-9.34c1.76-0.39,3.52-0.15,5.05,0.56
								C207.48,198.14,217.96,202.77,229.52,206.64z"/>
							<path class="st6" d="M242.69,219.61c-0.06-0.04-0.12-0.1-0.17-0.14l-5.87-5.45c-3.47-0.37-6.9-0.74-10.25-1.13
								c0.94-1.91,2.19-4.44,3.11-6.25c2.97,1.01,6.02,1.96,9.14,2.87l-0.01,0.03l5.12,0.93c1.99,0.36,3.67,1.71,4.36,3.6
								c0,0.01,0,0.02,0.01,0.03l0.34,1.93C249.04,219.29,245.28,221.66,242.69,219.61z"/>
						</g>
					</g>
					<linearGradient id="SVGID_11_" gradientUnits="userSpaceOnUse" x1="224.066" y1="181.0026" x2="224.066" y2="129.6942">
						<stop  offset="0" style="stop-color:#EE4921"/>
						<stop  offset="0.1586" style="stop-color:#F05530"/>
						<stop  offset="0.4284" style="stop-color:#F46443"/>
						<stop  offset="0.7057" style="stop-color:#F56D4E"/>
						<stop  offset="1" style="stop-color:#F67052"/>
					</linearGradient>
					<path class="st21" d="M240.77,191.77c-9.4,10.31-20.67,9.85-33.4,0.98l8.29-13.39c0.62-1.45,0.91-3,0.82-4.57
						c-0.06-1.1-0.31-2.19-0.74-3.25l-0.33-0.79l-2.17-5.2c-0.69-1.68-1.04-3.48-1.04-5.27c0-1.52,0.25-3.04,0.75-4.5
						c0.77-2.23,1.06-4.6,0.83-6.94l-0.45-4.49c1.41-0.44,3.33-0.57,5.41-0.61l-3.07,9.04c1.41,3.01,18.68,3.1,19.88,0l-3.85-9.46
						c1.74-0.13,3.34-0.04,4.72,0.38c1.41,2.24,0.63,7.83,2.47,11.56c1.88,3.82,0.57,8.83-1.42,12.74l-2.08,4.06l-1.72,3.36
						c-0.24,0.67-0.33,1.48-0.33,2.34c0,0.41,0.01,0.82,0.04,1.22c0.06,0.72,0.29,1.41,0.68,2.03L240.77,191.77z"/>
					<path class="st13" d="M237.18,124.09c-0.44-0.04-0.95,0.13-1.44,0.42c-0.65-2.99-2.23-6.17-4.17-8.35
						c-0.81-1.09-1.75-1.79-2.77-2.22c-0.55-0.27-1.11-0.45-1.67-0.5c-0.38-0.03-0.76-0.05-1.13-0.04
						c-0.37-0.01-0.75,0.01-1.13,0.04c-0.56,0.05-1.12,0.23-1.67,0.5c-1.02,0.43-1.95,1.13-2.77,2.22
						c-1.94,2.19-3.51,5.37-4.17,8.35c-0.5-0.29-1-0.46-1.44-0.42c-1.49,0.13-1.97,2.49-1.56,4.27c0.52,2.27,2.23,2.98,3.82,3.43
						c0.73,1.5,1.76,2.97,2.94,4.19c1.24,1.46,2.84,2.55,4.67,2.99c0.05,0.01,0.11,0.03,0.16,0.04c0.11,0.02,0.21,0.06,0.32,0.08
						c0.07,0.01,0.15,0.01,0.22,0.02c0.06,0.01,0.12,0.01,0.18,0.02c0.14,0.01,0.28,0.02,0.43,0.02c0.14,0,0.28-0.01,0.43-0.02
						c0.06-0.01,0.12-0.01,0.18-0.02c0.07-0.01,0.15-0.01,0.22-0.02c0.11-0.02,0.21-0.05,0.32-0.08c0.05-0.01,0.11-0.02,0.16-0.04
						c1.83-0.44,3.43-1.53,4.67-2.99c1.19-1.23,2.21-2.69,2.94-4.19c1.59-0.45,3.3-1.16,3.82-3.43
						C239.15,126.58,238.67,124.22,237.18,124.09z"/>
					<path class="st13" d="M224.7,191.67c0,0-3.66-6.25-4.34-6.9l-0.78-0.74c-0.87-0.81-2.11-1.08-3.24-0.69l-4.14,1.43
						c-0.65,0.23-1.37,0.04-1.82-0.48l-0.15-0.17l-2.08-2.39c0,0-10-16.54-15.48-13.73c-2.91,2.24-2.74,6.68,0.32,8.7l11.75,7.73
						l3.15,2.08l2.08,1.37c0.42,0.27,0.92,0.43,1.42,0.44l5.19,0.14C215.77,190.29,223.18,194.11,224.7,191.67z"/>
					<path class="st13" d="M226.79,190.87c0,0,3.66-6.25,4.34-6.9l0.78-0.74c0.87-0.81,2.11-1.08,3.24-0.69l4.14,1.43
						c0.65,0.23,1.37,0.04,1.82-0.48l0.15-0.17l2.08-2.39c0,0,10-16.54,15.48-13.73c2.91,2.24,2.74,6.68-0.32,8.7l-11.75,7.73
						l-3.15,2.08l-2.08,1.37c-0.42,0.27-0.92,0.43-1.42,0.44l-5.19,0.14C235.72,189.5,228.31,193.32,226.79,190.87z"/>
					<g>
						<g>
							<path class="st4" d="M227.02,134.53c1.1-0.34,2.3-1.15,2.81-2.98c0.04-0.15-0.05-0.31-0.2-0.35
								c-0.15-0.04-0.31,0.05-0.35,0.2c-0.91,3.26-4.27,2.8-4.41,2.78c-0.15-0.02-0.3,0.08-0.32,0.24c-0.02,0.15,0.08,0.3,0.24,0.32
								C224.81,134.74,225.86,134.89,227.02,134.53z"/>
						</g>
						<g>
							<path class="st4" d="M230.67,127.73c-0.04,0.53-0.49,0.93-1.02,0.9c-0.53-0.04-0.93-0.5-0.89-1.03
								c0.04-0.53,0.49-0.93,1.02-0.9C230.31,126.74,230.71,127.2,230.67,127.73z"/>
						</g>
						<g>
							<path class="st4" d="M222.9,127.73c-0.04,0.53-0.49,0.93-1.02,0.9c-0.53-0.04-0.93-0.5-0.89-1.03
								c0.04-0.53,0.49-0.93,1.02-0.9C222.54,126.74,222.94,127.2,222.9,127.73z"/>
						</g>
						<g>
							<path class="st4" d="M231.84,125.31c0.01,0,0.02-0.01,0.03-0.01c0.14-0.06,0.21-0.23,0.15-0.37
								c-0.75-1.71-2.29-1.65-3.01-1.38c-0.15,0.05-0.22,0.22-0.17,0.36c0.05,0.15,0.2,0.22,0.36,0.17
								c0.05-0.02,1.58-0.56,2.29,1.08C231.56,125.29,231.7,125.35,231.84,125.31z"/>
						</g>
						<g>
							<path class="st4" d="M223.31,124.22c0.01-0.01,0.01-0.02,0.02-0.03c0.07-0.14,0.02-0.31-0.12-0.38
								c-1.66-0.85-2.81,0.18-3.2,0.84c-0.08,0.13-0.03,0.31,0.1,0.38c0.13,0.08,0.3,0.05,0.39-0.1c0.03-0.05,0.86-1.43,2.46-0.62
								C223.08,124.38,223.24,124.34,223.31,124.22z"/>
						</g>
						<g>
							<path class="st4" d="M225.04,131.68c0.15,0,0.27-0.12,0.27-0.27c0-0.15-0.12-0.27-0.27-0.28c-0.01,0-0.53-0.01-0.66-0.3
								c-0.06-0.13-0.12-0.53,0.64-1.48c0.09-0.12,0.08-0.29-0.04-0.38c-0.12-0.09-0.29-0.07-0.39,0.04
								c-0.71,0.89-0.94,1.56-0.7,2.06C224.17,131.67,225,131.68,225.04,131.68L225.04,131.68z"/>
						</g>
					</g>
					<g>
						<linearGradient id="SVGID_12_" gradientUnits="userSpaceOnUse" x1="225.2088" y1="184.5904" x2="225.2088" y2="169.7291">
							<stop  offset="0" style="stop-color:#CCCCCC"/>
							<stop  offset="1" style="stop-color:#FFFFFF"/>
						</linearGradient>
						<path class="st22" d="M244.05,174.65h-37.69c-1.19,0-2.11,1.06-1.93,2.24l2.9,19.53c-0.72,0.18-1.26,0.82-1.26,1.59v0.02
							c0,0.89,0.73,1.62,1.62,1.62h34.78c0.89,0,1.62-0.73,1.62-1.62v-0.02c0-0.88-0.7-1.6-1.58-1.64l3.45-19.43
							C246.19,175.75,245.27,174.65,244.05,174.65z"/>
						<path class="st5" d="M227.54,185.33c0.91,0.91,0.91,2.39,0,3.3c-0.91,0.91-2.39,0.91-3.3,0s-0.91-2.39,0-3.3
							C225.15,184.42,226.63,184.42,227.54,185.33z"/>
					</g>
					<g>
						<path class="st6" d="M235.18,115.41c-2.19-3.09-5.86-4.85-9.51-4.66c-2.79,0.14-7.09,1.97-8.75,4.47
							c-4.25,6.39-0.64,9.29-0.64,9.29c2,1.76,5.6-2.83,5.5-4.72c1.93,0.65,3.5-0.47,3.89-2.41c-0.16,1.86,2.08,4.19,3.91,2.88
							c0.82,2.66,4.88,6.96,7.27,3.83C238.32,122.16,236.79,117.69,235.18,115.41z"/>
					</g>
				</g>
			</g>
			<g>
				<path class="st13" d="M413.41,439.9l-1.02,2.75h-15.12c0,0-1.85-4.84,10.9-4.84L413.41,439.9z"/>
				<linearGradient id="SVGID_13_" gradientUnits="userSpaceOnUse" x1="417.4409" y1="427.5688" x2="411.4646" y2="375.9396">
					<stop  offset="0" style="stop-color:#EE4921"/>
					<stop  offset="0.1586" style="stop-color:#F05530"/>
					<stop  offset="0.4284" style="stop-color:#F46443"/>
					<stop  offset="0.7057" style="stop-color:#F56D4E"/>
					<stop  offset="1" style="stop-color:#F67052"/>
				</linearGradient>
				<path class="st23" d="M424.67,399.55l-11,39.73l-0.26,0.69l-5.24-2.09c2.4-16.86,6.57-42.13,10.72-46.2L424.67,399.55z"/>
				<path class="st6" d="M514.61,445.79c1.5-0.6,2.41-1.88,2.64-3.26c0.28-1.62-0.35-3.37-1.94-4.39l-1.37-0.86
					c-0.71-0.45-1.54-0.68-2.38-0.67l-11.24,0.22l-0.96,5.57l12.49,3.52C512.76,446.18,513.74,446.14,514.61,445.79z"/>
				<linearGradient id="SVGID_14_" gradientUnits="userSpaceOnUse" x1="459.6337" y1="421.062" x2="507.9834" y2="421.062">
					<stop  offset="0" style="stop-color:#170C4A"/>
					<stop  offset="0.9838" style="stop-color:#5255EE"/>
				</linearGradient>
				<path class="st24" d="M464.96,425.41c0,0,12.85-25.33,12.96-24.98c0.12,0.34,10.13,37.29,10.13,37.29s-33.15,10.9-48.35-3.34
					L464.96,425.41z"/>
				<linearGradient id="SVGID_15_" gradientUnits="userSpaceOnUse" x1="443.7692" y1="424.5222" x2="437.7928" y2="372.8927">
					<stop  offset="0" style="stop-color:#EE4921"/>
					<stop  offset="0.1586" style="stop-color:#F05530"/>
					<stop  offset="0.4284" style="stop-color:#F46443"/>
					<stop  offset="0.7057" style="stop-color:#F56D4E"/>
					<stop  offset="1" style="stop-color:#F67052"/>
				</linearGradient>
				<path class="st25" d="M452.82,383.1c-17.56-4.11-25.58-0.41-33.94,8.58c4.41,20.41,10.73,34.62,22.88,42.7l23.2-8.97
					L452.82,383.1z"/>
				<path class="st10" d="M433.19,385.02c0,3.43,2.36,6.21,5.27,6.21c2.91,0,5.28-2.78,5.28-6.21c0-0.55-0.06-1.07-0.17-1.58
					l-2.48-0.79h-5.46l-2.34,1.21C433.22,384.24,433.19,384.63,433.19,385.02z"/>
				<g>
					<path class="st13" d="M426.48,371.37c0.47-0.04,1.01,0.13,1.54,0.45c0.7-3.18,2.37-6.56,4.43-8.89
						c0.87-1.16,1.86-1.91,2.94-2.36c0.59-0.29,1.18-0.48,1.77-0.53c0.41-0.04,0.81-0.05,1.21-0.04c0.4-0.01,0.8,0.01,1.21,0.04
						c0.59,0.05,1.19,0.24,1.77,0.53c1.08,0.45,2.08,1.21,2.94,2.36c2.06,2.33,3.74,5.71,4.43,8.89c0.53-0.31,1.06-0.49,1.54-0.45
						c1.58,0.14,2.1,2.65,1.66,4.55c-0.55,2.41-2.37,3.17-4.06,3.65c-0.77,1.59-1.87,3.16-3.13,4.46c-1.32,1.56-3.03,2.71-4.97,3.18
						c-0.06,0.01-0.11,0.03-0.17,0.04c-0.11,0.03-0.22,0.06-0.34,0.08c-0.08,0.01-0.16,0.01-0.23,0.02
						c-0.07,0.01-0.13,0.01-0.2,0.02c-0.15,0.01-0.3,0.02-0.45,0.02c-0.15,0-0.3-0.01-0.45-0.02c-0.07-0.01-0.13-0.01-0.2-0.02
						c-0.08-0.01-0.16-0.01-0.23-0.02c-0.11-0.02-0.22-0.05-0.34-0.08c-0.06-0.01-0.11-0.03-0.17-0.04
						c-1.95-0.47-3.65-1.63-4.97-3.18c-1.26-1.31-2.36-2.87-3.13-4.46c-1.69-0.48-3.51-1.24-4.06-3.65
						C424.38,374.01,424.9,371.5,426.48,371.37z"/>
					<g>
						<path class="st4" d="M434.37,374.78c-0.07,0.57,0.29,1.08,0.81,1.15c0.52,0.06,0.99-0.35,1.06-0.92
							c0.07-0.57-0.29-1.08-0.81-1.15C434.92,373.8,434.44,374.21,434.37,374.78z"/>
						<path class="st4" d="M442.11,374.78c-0.07,0.57,0.29,1.08,0.81,1.15c0.52,0.06,0.99-0.35,1.06-0.92
							c0.07-0.57-0.29-1.08-0.81-1.15C442.66,373.8,442.18,374.21,442.11,374.78z"/>
						<g>
							<g>
								<path class="st4" d="M433.41,373.45c0.12,0.02,0.25-0.03,0.32-0.14c1.16-1.69,2.73-0.76,2.8-0.72
									c0.15,0.09,0.35,0.04,0.44-0.11c0.09-0.15,0.04-0.35-0.11-0.44c-0.74-0.45-2.47-0.84-3.66,0.91
									c-0.1,0.15-0.06,0.35,0.08,0.45C433.32,373.42,433.37,373.44,433.41,373.45z"/>
							</g>
						</g>
						<g>
							<g>
								<path class="st4" d="M438.14,381.78c-0.04-0.12-0.14-0.21-0.27-0.22c-2.03-0.26-1.92-2.08-1.92-2.16
									c0.01-0.18-0.12-0.33-0.3-0.35c-0.18-0.01-0.33,0.12-0.34,0.3c-0.06,0.87,0.37,2.58,2.48,2.85c0.18,0.02,0.34-0.1,0.36-0.28
									C438.16,381.87,438.16,381.82,438.14,381.78z"/>
							</g>
						</g>
						<g>
							<g>
								<path class="st4" d="M441.7,372.25c0.07,0.07,0.18,0.1,0.29,0.07c1.62-0.58,2.23,0.82,2.26,0.88
									c0.06,0.14,0.22,0.2,0.35,0.14c0.14-0.06,0.2-0.22,0.14-0.35c-0.28-0.67-1.26-1.79-2.94-1.18
									c-0.14,0.05-0.21,0.21-0.16,0.35C441.65,372.19,441.67,372.22,441.7,372.25z"/>
							</g>
						</g>
						<g>
							<path class="st4" d="M439.76,380.19c0.22,0,0.43-0.06,0.62-0.18c0.59-0.38,0.74-1.26,0.4-2.34l-0.77-3.61
								c-0.03-0.14-0.16-0.23-0.31-0.2c-0.14,0.03-0.23,0.17-0.2,0.31l0.77,3.63c0.32,1.03,0.12,1.59-0.18,1.78
								c-0.3,0.2-0.77,0.08-1.18-0.28c-0.11-0.09-0.28-0.1-0.38,0.01c-0.09,0.1-0.1,0.25,0,0.35
								C438.94,380.01,439.37,380.19,439.76,380.19z"/>
						</g>
					</g>
				</g>
				<path class="st6" d="M500.11,465.84c-0.49,1.4-1.71,2.35-3.05,2.72c-1.59,0.43-3.36,0.08-4.47-1.22l-0.94-1.11
					c-0.49-0.58-0.77-1.29-0.82-2.04l-0.52-10l5.46-1.49l4.31,10.68C500.38,464.15,500.4,465.02,500.11,465.84z"/>
				<linearGradient id="SVGID_16_" gradientUnits="userSpaceOnUse" x1="504.8408" y1="443.4566" x2="425.1265" y2="431.4994">
					<stop  offset="0" style="stop-color:#170C4A"/>
					<stop  offset="0.9838" style="stop-color:#5255EE"/>
				</linearGradient>
				<path class="st26" d="M487.72,442.21l10.69-0.25l0.95,0.26l0.96-5.57l-1,0.01l-54.62-9.38c-0.26-0.05-0.52-0.07-0.77-0.08
					c-0.64-0.02-1.9-0.01-3.29,0.26c-4.71,0.93-6.16,6.78-2.5,9.89c2.54,2.16,5.82,3.6,9.64,4.53l0.01,0
					C458.52,444.49,473.42,443.05,487.72,442.21z"/>
				<linearGradient id="SVGID_17_" gradientUnits="userSpaceOnUse" x1="495.093" y1="468.5576" x2="483.222" y2="395.7487">
					<stop  offset="0" style="stop-color:#170C4A"/>
					<stop  offset="0.9838" style="stop-color:#5255EE"/>
				</linearGradient>
				<path class="st27" d="M494.98,442.36l0.46,9.51l0.32,0.82l-5.46,1.49l-0.05-0.89l-12.91-47.38c-0.06-0.23-0.11-0.45-0.13-0.68
					c-0.07-0.56-0.14-1.68,0.04-2.94c0.61-4.29,6.31-6.24,9.63-3.34c2.31,2.01,3.95,4.75,5.12,8.04l0,0.01
					C495.3,416.2,494.86,429.59,494.98,442.36z"/>
				<g>
					<g>
						<path class="st4" d="M455.43,406.28l-3.94,4.53c-0.34,0.39-0.3,0.98,0.09,1.32l8.05,7.03c0.4,0.35,1.02,0.29,1.35-0.13
							l3.44-4.39c0.3-0.38,0.26-0.92-0.09-1.26l-7.55-7.18C456.4,405.85,455.78,405.88,455.43,406.28z"/>
						<path class="st5" d="M453.35,411.61c0,0.41,0.33,0.74,0.74,0.74c0.41,0,0.74-0.33,0.74-0.74c0-0.41-0.33-0.74-0.74-0.74
							C453.68,410.86,453.35,411.2,453.35,411.61z"/>
					</g>
					<linearGradient id="SVGID_18_" gradientUnits="userSpaceOnUse" x1="468.7178" y1="421.6355" x2="462.7413" y2="370.0053">
						<stop  offset="0" style="stop-color:#EE4921"/>
						<stop  offset="0.1586" style="stop-color:#F05530"/>
						<stop  offset="0.4284" style="stop-color:#F46443"/>
						<stop  offset="0.7057" style="stop-color:#F56D4E"/>
						<stop  offset="1" style="stop-color:#F67052"/>
					</linearGradient>
					<path class="st28" d="M479.74,396.09c-1.26,4.3-4.77,13.73-12.76,19.91l-2.18-7.07l4.97-7.52l-14.95-5.95
						c-3.14-1.25-4.73-4.77-3.59-7.95l1.6-4.42l25.45,9.75C479.5,393.41,480.12,394.8,479.74,396.09z"/>
				</g>
				<path class="st13" d="M466.98,416c-1.93,1.5-4.11,2.8-6.59,3.8c-1.56,0.63-3.34,0.09-4.29-1.29c-0.34-0.51-0.68-1.1-0.99-1.81
					l-3.03,0.51c0,0-2.83-0.6,7.13-5.05l1.6-1.24l-2.66-3.8c0,0,0.79-1.33,6.11,2.64l0.55-0.82L466.98,416z"/>
				<g>
					<g>
						<path class="st4" d="M428.1,371.97c0-0.01-0.01-0.03-0.02-0.04c-0.01-0.01-0.01-0.01-0.02-0.02L428.1,371.97z"/>
					</g>
					<g>
						<path class="st3" d="M448.95,365.69c-1.26-1.53-2.33-3.18-3.2-4.97c-0.89-1.82-3.03-2.74-4.97-2.91
							c-2.2-0.19-4.37,0.34-6.37,1.2c-2.36,1.02-4.23,3.19-5.91,5.08c-1.78,2-3.24,5.21-1.27,7.5c0.17,0.2,1.79,1.85,1.86,2.03
							c0.08,0.21-0.35,1.02-0.38,1.33c-0.04,0.37-0.02,0.79,0,1.16c0.07,0.99,0.58,2.1,1.74,1.58c1.02-0.45,0.98-1.62,1.02-2.55
							c0.05-1.08,0.02-2.48-0.55-3.45c4.82-1.34,6.2-5.47,6.57-6.04c0.32,0.92,1.53,1.87,2.3,2.43c0.81,0.59,1.54,1.27,2.42,1.74
							c0.81,0.43,1.67,0.86,2.54,1.16c0.39,0.14,0.87,0.03,1.06,0.41c0.12,0.24,0,0.83,0,1.11c0,0.99,0.1,1.82,0.55,2.71
							c0.19,0.37,0.41,0.96,0.89,0.83c0.43-0.11,0.76-0.95,0.87-1.33c0.23-0.75,0.36-1.53,0.62-2.28c0.27-0.77,0.56-1.34,0.96-2.05
							C450.53,368.94,449.94,366.89,448.95,365.69z"/>
					</g>
				</g>
			</g>
			<g>
				<g>
					<path class="st3" d="M653.85,305.19c-0.11-1.37-0.25-2.75-0.43-4.12c-0.51-3.82-1.2-7.57-2.07-11.19
						c-0.83-3.48-1.76-6.86-3.09-9.81c-1.39-3.1-2.68-6.35-3.85-9.71c-1.08-3.1-2.06-6.31-2.91-9.62
						c-6.85,0.29-13.69,0.57-20.54,0.86c-1.52,7.2-4.26,13.4-7.13,19.24c-2.87,5.83-5.92,11.46-8.22,18
						c-2.3,6.54-3.83,14.21-3.29,21.82c1.19-7.28,4.42-13.47,8.48-16.28c-1.41,5.01-0.68,11.24,1.16,15.82
						c1.84,4.58,4.62,7.76,7.48,10.33c3.08,2.77,6.32,4.98,9.67,6.58c1.38,0.66,2.82,1.21,4.23,0.8c1.26-0.37,2.4-1.49,3.46-2.74
						c6.28-7.43,10.35-20.18,10.63-33.34c1.16,1.9,2.69,2.95,4.06,4.38c1.37,1.43,2.69,3.51,2.91,6.25
						C654.19,310.02,654.05,307.6,653.85,305.19z"/>
				</g>
				<g>
					<g>
						<linearGradient id="SVGID_19_" gradientUnits="userSpaceOnUse" x1="652.263" y1="323.7014" x2="652.263" y2="290.1749">
							<stop  offset="0" style="stop-color:#EE4921"/>
							<stop  offset="0.1586" style="stop-color:#F05530"/>
							<stop  offset="0.4284" style="stop-color:#F46443"/>
							<stop  offset="0.7057" style="stop-color:#F56D4E"/>
							<stop  offset="1" style="stop-color:#F67052"/>
						</linearGradient>
						<path class="st29" d="M667.6,313.25l-4.52-5.38c-0.2-0.23-0.4-0.47-0.59-0.71c-3.27-3.97-6.19-8.22-8.94-12.56
							c-1.74-2.73-4.27-5.07-7.24-6.48c-3.35-1.59-6.95-1.36-10.51-1.77c0,0,0.25,0.51,0.46,1.23c0.37,1.29,1.56,1.89,2.51,2.71
							c2.97,2.56,3.22,6.94,3.71,10.56c0.28,2.14,1.01,3.17,2.68,4.44c1.39,1.06,2.75,2.17,4.12,3.25c1.91,1.51,3.82,3.01,5.73,4.52
							l10.03,7.9C668.49,320.15,669.9,315.97,667.6,313.25z"/>
						<linearGradient id="SVGID_20_" gradientUnits="userSpaceOnUse" x1="610.3044" y1="323.7014" x2="610.3044" y2="290.1749">
							<stop  offset="0" style="stop-color:#EE4921"/>
							<stop  offset="0.1586" style="stop-color:#F05530"/>
							<stop  offset="0.4284" style="stop-color:#F46443"/>
							<stop  offset="0.7057" style="stop-color:#F56D4E"/>
							<stop  offset="1" style="stop-color:#F67052"/>
						</linearGradient>
						<path class="st30" d="M623.89,287.13c-6.37,0.12-11.52,1.93-15.05,7.48c-2.8,4.4-5.75,8.69-9.08,12.71
							c-0.15,0.19-0.29,0.37-0.45,0.56l-4.52,5.38c-2.3,2.72-0.89,6.91,2.57,7.71l9.22-7.26l12.77-10.06
							c0.21-1.16,0.43-2.33,0.64-3.49c0.38-2.08,5.86,0.41,6.81-1.49c0.88-1.77-2.6-7.72-1.76-9.51c0.4-0.8,0.74-1.63,1.05-2.5
							C625.96,287,624.9,287.11,623.89,287.13z"/>
					</g>
					<path class="st10" d="M639.03,290.39c-0.96-0.88-1.79-1.83-2.43-2.91v-0.01c-0.25-0.39-0.46-0.79-0.64-1.24
						c-1.48-0.15-1.16-2.87-1.16-2.97c-0.03-0.54-0.07-1.1-0.12-1.63l-0.27-2.95l-7.23,1.74c0.4,0.73,0.56,1.65,0.51,2.79
						c-0.01,0.29-0.03,0.61-0.08,0.94c0,0,0,0,0,0.01c0,0.02-0.02,0.1-0.05,0.21c-0.24,0.94-0.63,1.5-1.28,1.89
						c-0.13,0.08-0.3,0.17-0.46,0.24c-0.32,0.89-0.67,1.76-1.09,2.59c-0.62,1.33-1.35,2.56-2.24,3.63c0.76,5.46,4.29,9.6,8.52,9.6
						c4.68,0,8.48-5.04,8.67-11.33C639.45,290.78,639.26,290.58,639.03,290.39z"/>
					<linearGradient id="SVGID_21_" gradientUnits="userSpaceOnUse" x1="612.4673" y1="347.0165" x2="649.8747" y2="347.0165">
						<stop  offset="0" style="stop-color:#170C4A"/>
						<stop  offset="0.9838" style="stop-color:#5255EE"/>
					</linearGradient>
					<path class="st31" d="M646.02,338.25l-25.97,0.6c-7.06,0.15-10.24,8.91-4.92,13.56l3.73,3.25l25.37,0.13
						C644.23,355.79,655.64,339.8,646.02,338.25z"/>
					<g>
						<path class="st13" d="M643.51,266.18c-0.47-0.04-1.01,0.13-1.54,0.45c-0.69-3.18-2.37-6.56-4.43-8.88
							c-0.87-1.15-1.86-1.91-2.94-2.36c-0.59-0.29-1.18-0.48-1.77-0.53c-0.41-0.04-0.81-0.05-1.21-0.04
							c-0.4-0.01-0.8,0.01-1.21,0.04c-0.59,0.05-1.19,0.24-1.77,0.53c-1.08,0.45-2.08,1.2-2.94,2.36c-2.06,2.33-3.74,5.71-4.43,8.88
							c-0.53-0.31-1.06-0.49-1.54-0.45c-1.58,0.14-2.1,2.64-1.66,4.55c0.55,2.41,2.37,3.16,4.06,3.64c0.77,1.59,1.87,3.16,3.13,4.46
							c1.32,1.56,3.03,2.71,4.97,3.18c0.06,0.01,0.11,0.03,0.17,0.04c0.11,0.03,0.22,0.06,0.34,0.08c0.08,0.01,0.16,0.01,0.23,0.02
							c0.07,0.01,0.13,0.01,0.2,0.02c0.15,0.01,0.3,0.02,0.45,0.02c0.15,0,0.3-0.01,0.45-0.02c0.07-0.01,0.13-0.01,0.2-0.02
							c0.08-0.01,0.16-0.01,0.23-0.02c0.11-0.02,0.22-0.05,0.34-0.08c0.06-0.01,0.11-0.03,0.17-0.04c1.94-0.47,3.65-1.63,4.97-3.18
							c1.26-1.31,2.36-2.87,3.13-4.46c1.69-0.48,3.51-1.24,4.06-3.64C645.61,268.83,645.09,266.32,643.51,266.18z"/>
						<g>
							<path class="st4" d="M632.38,276.94c1.11-0.35,2.32-1.16,2.84-3c0.04-0.15-0.05-0.31-0.2-0.35c-0.15-0.04-0.31,0.05-0.35,0.2
								c-0.92,3.29-4.31,2.83-4.45,2.8c-0.16-0.02-0.3,0.08-0.32,0.24c-0.02,0.16,0.08,0.3,0.24,0.32
								C630.15,277.16,631.21,277.3,632.38,276.94z"/>
						</g>
						<g>
							<path class="st4" d="M637.25,267.64c0.01,0,0.02-0.01,0.03-0.01c0.14-0.06,0.21-0.23,0.15-0.38
								c-0.75-1.72-2.31-1.66-3.04-1.4c-0.15,0.06-0.22,0.22-0.17,0.37c0.05,0.15,0.2,0.23,0.37,0.17c0.05-0.02,1.59-0.56,2.31,1.09
								C636.96,267.62,637.11,267.68,637.25,267.64z"/>
						</g>
						<g>
							<path class="st4" d="M628.64,266.53c0.01-0.01,0.01-0.02,0.02-0.03c0.07-0.14,0.02-0.31-0.12-0.38
								c-1.68-0.85-2.84,0.18-3.23,0.85c-0.08,0.14-0.03,0.31,0.1,0.39c0.14,0.08,0.3,0.05,0.39-0.1c0.03-0.05,0.87-1.44,2.48-0.62
								C628.4,266.7,628.56,266.66,628.64,266.53z"/>
						</g>
						<g>
							<path class="st4" d="M630.34,274.3c-1.21-0.2-1.39-0.75-1.41-0.88c-0.02-0.07,0-0.15,0.04-0.21l1.63-2.44
								c0.09-0.13,0.26-0.17,0.39-0.08c0.13,0.09,0.17,0.26,0.08,0.39l-1.54,2.29c0.12,0.13,0.49,0.38,1.54,0.42
								c0.17,0,0.28,0.14,0.27,0.29c-0.01,0.16-0.14,0.28-0.3,0.27C630.78,274.36,630.55,274.34,630.34,274.3z"/>
						</g>
						<g>
							<path class="st4" d="M626.8,270.1c0.04,0.53,0.47,0.93,0.96,0.9c0.5-0.03,0.87-0.49,0.83-1.02c-0.04-0.53-0.47-0.93-0.96-0.9
								C627.14,269.11,626.76,269.57,626.8,270.1z"/>
						</g>
						<g>
							<path class="st4" d="M633.96,270.1c0.04,0.53,0.47,0.93,0.96,0.9c0.5-0.03,0.87-0.49,0.83-1.02
								c-0.04-0.53-0.47-0.93-0.96-0.9C634.3,269.11,633.93,269.57,633.96,270.1z"/>
						</g>
					</g>
					<linearGradient id="SVGID_22_" gradientUnits="userSpaceOnUse" x1="629.4244" y1="323.7015" x2="629.4244" y2="290.1749">
						<stop  offset="0" style="stop-color:#EE4921"/>
						<stop  offset="0.1586" style="stop-color:#F05530"/>
						<stop  offset="0.4284" style="stop-color:#F46443"/>
						<stop  offset="0.7057" style="stop-color:#F56D4E"/>
						<stop  offset="1" style="stop-color:#F67052"/>
					</linearGradient>
					<path class="st32" d="M647.19,338.18c-9.99,10.97-21.98,10.46-35.52,1.04l8.8-14.25c0.37-0.84,0.62-1.72,0.76-2.62
						c0.13-0.74,0.17-1.49,0.11-2.25c-0.06-1.18-0.33-2.34-0.79-3.47l-0.34-0.83l-2.31-5.53c-0.74-1.79-1.11-3.7-1.11-5.62
						c0-1.6,0.27-3.22,0.81-4.79v-0.01c0.51-1.49,1.23-2.9,2.28-4.08c0.5-0.55,0.99-1.09,1.5-1.63l0.01-0.01
						c0.2-0.22,0.38-0.42,0.58-0.62c0.27-0.28,0.52-0.56,0.75-0.86c0.74,5.27,4.14,9.28,8.24,9.28c4.53,0,8.2-4.87,8.38-10.96
						c0.15,0.14,0.31,0.29,0.46,0.44l0.01,0.03c1.87,1.88,3.47,3.99,4.74,6.29c0.18,0.56,0.38,1.11,0.62,1.6
						c2.01,4.05,0.62,9.39-1.51,13.55l-2.21,4.32l-1.82,3.58c-0.08,0.17-0.13,0.33-0.17,0.51c-0.14,0.58-0.19,1.27-0.19,1.97
						c0,0.43,0,0.86,0.03,1.31c0.06,0.75,0.33,1.5,0.74,2.15L647.19,338.18z"/>
					<g>
						<path class="st13" d="M666.16,321.3l-12.49,8.21l-3.36,2.21l-1.92,1.27l-1.23-3.24c0.19-0.09,0.36-0.22,0.51-0.39l0.16-0.18
							l2.21-2.54c0,0,10.63-17.59,16.47-14.61C669.61,314.43,669.42,319.16,666.16,321.3z"/>
						<path class="st13" d="M648.39,333l-0.28,0.19c-0.45,0.28-0.98,0.45-1.51,0.47l-5.52,0.15c0.87,1.94-7.01,6.01-8.63,3.4
							c0,0,3.89-6.64,4.61-7.34l0.83-0.79c0.92-0.87,2.25-1.15,3.45-0.73l4.39,1.52c0.48,0.17,1,0.12,1.43-0.11L648.39,333z"/>
					</g>
					<g>
						<path class="st13" d="M596.23,321.3l12.49,8.21l3.36,2.21L614,333l1.23-3.24c-0.19-0.09-0.36-0.22-0.51-0.39l-0.16-0.18
							l-2.21-2.54c0,0-10.63-17.59-16.47-14.61C592.78,314.43,592.97,319.16,596.23,321.3z"/>
						<path class="st13" d="M614,333l0.28,0.19c0.45,0.28,0.98,0.45,1.51,0.47l5.52,0.15c-0.87,1.94,7.01,6.01,8.63,3.4
							c0,0-3.89-6.64-4.61-7.34l-0.83-0.79c-0.92-0.87-2.25-1.15-3.45-0.73l-4.39,1.52c-0.48,0.17-1,0.12-1.43-0.11L614,333z"/>
					</g>
				</g>
				<g>
					<linearGradient id="SVGID_23_" gradientUnits="userSpaceOnUse" x1="629.9095" y1="345.5881" x2="629.9095" y2="308.0389">
						<stop  offset="0" style="stop-color:#CCCCCC"/>
						<stop  offset="1" style="stop-color:#FFFFFF"/>
					</linearGradient>
					<path class="st33" d="M649.45,320.65h-39.09c-1.27,0-2.24,1.13-2.06,2.38l3.01,20.25c-0.75,0.18-1.31,0.85-1.31,1.65l0,0
						c0,0.94,0.77,1.71,1.71,1.71h36.13c0.94,0,1.71-0.77,1.71-1.71l0,0c0-0.92-0.73-1.66-1.64-1.7l3.58-20.15
						C651.73,321.82,650.75,320.65,649.45,320.65z"/>
					<path class="st5" d="M633.26,331.31c0.97,0.97,0.97,2.54,0,3.51c-0.97,0.97-2.54,0.97-3.51,0c-0.97-0.97-0.97-2.54,0-3.51
						C630.71,330.34,632.29,330.34,633.26,331.31z"/>
				</g>
				<g>
					<g>
						<linearGradient id="SVGID_24_" gradientUnits="userSpaceOnUse" x1="645.3998" y1="402.5529" x2="617.9988" y2="346.0386">
							<stop  offset="0" style="stop-color:#170C4A"/>
							<stop  offset="0.9838" style="stop-color:#5255EE"/>
						</linearGradient>
						<path class="st34" d="M648.19,396.6l-3.64,2.97c0-0.01-0.01-0.04-0.01-0.05c-3.88-5.02-13.56-18.75-17.62-23.82
							c-10-12.53-15.98-21.5-15.72-31.19c0.05-1.71,0.79-3.25,1.95-4.35c1.16-1.1,2.75-1.79,4.46-1.79c3.75,0,7.12,2.24,8.56,5.68
							l8.97,25.56L648.19,396.6z"/>
						<path class="st6" d="M656.86,409.86c-1.55-5.64-3.5-8.16-8.44-12.38c0,0-0.01,0-0.01-0.01c-0.33-0.28-0.67-0.57-1.03-0.85
							l-0.04,0.03l-0.01-0.04l-3.64,2.97c0.18,0.68,0.39,1.33,0.6,1.95c1.99,5.63,5.05,8.69,7.35,11.08
							C654.13,415.16,657.81,413.3,656.86,409.86z"/>
					</g>
					<linearGradient id="SVGID_25_" gradientUnits="userSpaceOnUse" x1="604.5379" y1="398.711" x2="649.9232" y2="343.0499">
						<stop  offset="0" style="stop-color:#170C4A"/>
						<stop  offset="0.9838" style="stop-color:#5255EE"/>
					</linearGradient>
					<path class="st35" d="M650.88,344.51c0.26,9.69-5.72,18.66-15.72,31.19c-4.06,5.07-13.74,18.8-17.62,23.82
						c0,0.01-0.01,0.04-0.01,0.05l-3.72-2.93c0.01,0,0.03-0.01,0.04-0.03l0.03,0.03l13.07-27.03l8.97-25.56
						c1.45-3.44,4.81-5.68,8.56-5.68c1.72,0,3.3,0.68,4.46,1.79C650.09,341.26,650.82,342.8,650.88,344.51z"/>
					<path class="st6" d="M613.8,396.64c-0.64,0.54-1.25,1.05-1.8,1.53c-4.37,3.83-6.18,6.38-7.64,11.7
						c-0.96,3.43,2.72,5.3,5.21,2.73c-1.61,1.66,6.59-9.1,7.05-10.29c0.33-0.84,0.63-1.76,0.91-2.73L613.8,396.64z"/>
				</g>
				<g>
					<path class="st3" d="M640.63,257.85c-0.81-1.59-2.01-2.93-3.69-3.78c-2.66-1.35-6-1.2-8.8-0.39c-2.88,0.83-5.34,2.95-6.62,5.69
						c-1.43,3.07-1.15,6.68,0.05,9.79c0.06,0.15,0.12,0.3,0.18,0.44c0.39,0.93,1.16,2.27,2.11,2.72c0.13-2.14,0.12-4.15,1.06-6.14
						c0.55-1.16,1.09-2.26,1.89-3.26c0.4-0.5,0.84-0.97,1.25-1.46c0.28-0.34,0.48-0.86,0.91-1.01c-0.33,1.33-0.63,2.43-0.5,3.82
						c0.14,1.47,1.42,2.6,1.54,4.06c0.21-0.76,0.98-1.55,1.47-2.17c0.71-0.89,1.65-1.56,2.64-2.13c0.61-0.35,1.21-0.7,1.78-1.08
						c0.28,0.86,0.57,1.72,0.97,2.56c0.53,1.12,1.37,1.91,1.95,2.96c0.41,0.74,0.89,1.53,1.12,2.35c0.16,0.57,0.12,1.19,0.24,1.74
						c1.36-1.7,1.76-4.26,1.89-6.35C642.26,263.46,641.92,260.35,640.63,257.85z"/>
				</g>
				<g>
					<path class="st3" d="M637.84,266.6c0.25,0.39,0.54,0.74,0.82,1.11c0.48,0.66,0.47,1.14,0.52,1.93
						c0.11,1.82,0.14,3.69-0.34,5.46c-0.35,1.3-0.9,2.54-1.19,3.85c-0.4,1.86-0.98,3.52-1.65,5.31c-1.33,3.56-3.21,7.58-1.87,11.39
						c0.46,1.31,1.03,2.37,1.88,3.47c0.5,0.65,1.21,0.96,1.86,1.43c-0.87-0.93-0.1-3.11,0.23-4.09c0.33-0.98,0.84-1.82,1.35-2.71
						c0.76-1.29,1.28-2.7,1.79-4.11c1-2.74,1.79-5.86,2-8.77c0.09-1.23,0.2-2.48,0.2-3.72c0-1.62-0.36-3.12-0.73-4.68
						c-0.41-1.74-0.26-2.89-0.59-8.52"/>
				</g>
				<g>
					<path class="st3" d="M624.75,264.76c-0.25,0.39-0.76,4.09-0.81,4.88c-0.11,1.82-0.14,3.69,0.34,5.46
						c0.35,1.3,0.9,2.54,1.19,3.85c0.4,1.86,0.98,3.52,1.65,5.31c1.33,3.56,3.21,7.58,1.87,11.39c-0.46,1.31-1.03,2.37-1.88,3.47
						c-0.5,0.65-1.21,0.96-1.86,1.43c0.87-0.93,0.1-3.11-0.23-4.09c-0.33-0.98-0.84-1.82-1.35-2.71c-0.76-1.29-1.28-2.7-1.79-4.11
						c-1-2.74-1.79-5.86-2-8.77c-0.09-1.23-0.2-2.48-0.2-3.72c0-1.62,0.36-3.12,0.73-4.68c0.41-1.74,0.26-2.89,0.59-8.52"/>
				</g>
			</g>
			<g>
				<linearGradient id="SVGID_26_" gradientUnits="userSpaceOnUse" x1="635.702" y1="182.8519" x2="572.0423" y2="202.1051">
					<stop  offset="0" style="stop-color:#EE4921"/>
					<stop  offset="0.1586" style="stop-color:#F05530"/>
					<stop  offset="0.4284" style="stop-color:#F46443"/>
					<stop  offset="0.7057" style="stop-color:#F56D4E"/>
					<stop  offset="1" style="stop-color:#F67052"/>
				</linearGradient>
				<path class="st36" d="M645.09,204.52c-1.48,3.55-5.3,5.27-11.08,5.39c-1.5,0.04-3-0.04-4.48-0.24
					c-4.02-0.54-7.9-1.91-11.43-3.93l-23.67-13.58l-2.55-1.47c-2.04-1.17-4.34-1.76-6.61-1.76c-2.44,0-4.91,0.68-7.07,2.04
					c-4.7,2.96-7.08,8.51-5.95,13.96l1.61,7.73l-0.02,0.15l-16.08,20.47c-0.98-0.32-2.48-0.8-4.27-1.36l19.91-49.65
					c3.9-9.68,14.6-15.11,24.47-11.71l14.01,5.29l0.01,0.01l20.7,7.14c6.95,2.38,12.17,8.4,13.06,15.67
					C645.94,201,645.73,202.93,645.09,204.52z"/>
				<linearGradient id="SVGID_27_" gradientUnits="userSpaceOnUse" x1="605.0042" y1="221.4921" x2="541.3486" y2="240.7441">
					<stop  offset="0" style="stop-color:#EE4921"/>
					<stop  offset="0.1586" style="stop-color:#F05530"/>
					<stop  offset="0.4284" style="stop-color:#F46443"/>
					<stop  offset="0.7057" style="stop-color:#F56D4E"/>
					<stop  offset="1" style="stop-color:#F67052"/>
				</linearGradient>
				<path class="st37" d="M629.55,209.67l-37.1-0.7l-3.11,56.39c-1.27,0.33-2.74,0.7-4.31,1.09l-11.16-53.8l-1.61-7.73
					c-1.13-5.45,1.25-11.01,5.95-13.96c2.16-1.36,4.62-2.04,7.07-2.04c2.27,0,4.57,0.59,6.61,1.76l2.55,1.47l35.1,17.51
					L629.55,209.67z"/>
				<linearGradient id="SVGID_28_" gradientUnits="userSpaceOnUse" x1="647.1218" y1="315.6073" x2="644.9263" y2="269.8153">
					<stop  offset="0" style="stop-color:#EE4921"/>
					<stop  offset="0.1586" style="stop-color:#F05530"/>
					<stop  offset="0.4284" style="stop-color:#F46443"/>
					<stop  offset="0.7057" style="stop-color:#F56D4E"/>
					<stop  offset="1" style="stop-color:#F67052"/>
				</linearGradient>
				<path class="st38" d="M645.09,204.65h-0.01c0.66-1.58,0.86-3.52,0.58-5.85c-0.89-7.28-6.12-13.3-13.06-15.68l-9.78-3.37
					c9.46-11.83,13.24-23.54,7.48-46.12l7.84-4.45C664.88,162.37,662.14,185.86,645.09,204.65z"/>
				<linearGradient id="SVGID_29_" gradientUnits="userSpaceOnUse" x1="646.753" y1="181.158" x2="624.0205" y2="141.5385">
					<stop  offset="0" style="stop-color:#170C4A"/>
					<stop  offset="0.9838" style="stop-color:#5255EE"/>
				</linearGradient>
				<path class="st39" d="M645.09,204.65h-0.01c0.66-1.58,0.86-3.52,0.58-5.85c-0.89-7.28-6.12-13.3-13.06-15.68l-9.78-3.37
					c9.46-11.83,13.24-23.54,7.48-46.12l7.84-4.45C664.88,162.37,662.14,185.86,645.09,204.65z"/>
				<linearGradient id="SVGID_30_" gradientUnits="userSpaceOnUse" x1="675.6938" y1="189.5432" x2="631.386" y2="156.1499">
					<stop  offset="0" style="stop-color:#170C4A"/>
					<stop  offset="0.9838" style="stop-color:#5255EE"/>
				</linearGradient>
				<path class="st40" d="M603.09,167.69c0.15-0.33,1.48-5.07,1.48-5.07l41.22,6.05l-9.8-18.72c-1.8-3.44-3.07-7.22-3.09-11.1
					c-0.03-5.02,2.75-8.96,8.38-6.99c5.17,1.81,9.29,5.84,11.55,10.83c11.73,25.92,10.85,41-7.97,41.33
					c-5.38,0.09-10.68-1.36-15.41-3.92L603.09,167.69z"/>
				<path class="st41" d="M604.56,162.61l-1.48,5.07l-12.14-4.97C592.85,157.91,597.76,157.92,604.56,162.61z"/>
				<path class="st11" d="M608.37,174.63L608.37,174.63l-28.8-11.16c0,0-4.5-32.74-4.17-32.74l0,0c2.45,0,4.53,1.78,4.91,4.2
					l3.93,25.05l21.65,8.87C608.16,169.77,609.26,172.35,608.37,174.63z"/>
				<path class="st10" d="M638.14,129.05l-4.63-7.38l-7.09,3.05c2.23,2.92,3.88,8.78,3.88,8.78L638.14,129.05z"/>
				<g>
					<path class="st13" d="M633.95,111.5c-1.11-2.36-2.79-4.46-4.74-6.25c-1.77-1.62-4.27-3.38-6.81-3.01
						c-1.41,0.2-2.81,0.64-3.96,1.49c-1.3,0.95-2.14,2.36-2.63,3.87c-0.74,2.33-0.76,4.86-0.59,7.27c0.06,0.88,0.16,1.75,0.27,2.62
						c0.13,0.94,0.34,1.93,0.19,2.89c-0.06,0.42-0.11,0.84-0.15,1.26c-0.02,0.27-0.1,0.63,0,0.89c0.16,0.43,0.82,0.43,1.31,0.39
						c0.04,0,0.08-0.02,0.11-0.04c1.89,3.65,5.62,6.37,9.59,6.15c2.49-0.14,4.48-2.16,5.8-4.11
						C635.01,120.97,636.05,115.97,633.95,111.5z"/>
					<g>
						<g>
							<path class="st4" d="M620.96,123c0.68-0.8,1.22-2.01,0.72-3.67c-0.04-0.14-0.19-0.21-0.32-0.17
								c-0.13,0.04-0.21,0.18-0.17,0.32c0.89,2.96-1.93,4.24-2.05,4.3c-0.13,0.06-0.19,0.21-0.13,0.34
								c0.06,0.13,0.21,0.19,0.34,0.13C619.36,124.24,620.24,123.85,620.96,123z"/>
						</g>
					</g>
					<g>
						<path class="st4" d="M618.88,118.05c0.15,0.51-0.14,1.04-0.64,1.18c-0.5,0.15-1.03-0.14-1.18-0.65
							c-0.15-0.51,0.14-1.04,0.64-1.18C618.21,117.26,618.73,117.55,618.88,118.05z"/>
					</g>
					<g>
						<g>
							<path class="st4" d="M619.47,115.14c0.01-0.01,0.01-0.01,0.02-0.02c0.1-0.1,0.11-0.26,0.01-0.36
								c-1.18-1.23-2.48-0.69-3.01-0.24c-0.11,0.09-0.12,0.25-0.03,0.36c0.09,0.11,0.24,0.13,0.36,0.03c0.04-0.03,1.17-0.97,2.3,0.2
								C619.22,115.21,619.37,115.22,619.47,115.14z"/>
						</g>
					</g>
				</g>
				<g>
					<path class="st6" d="M575.1,278.25c-1.86,0.62-3.83-0.84-1.04-2.93l11.01-8.74l-0.03-0.12c1.57-0.39,3.03-0.77,4.31-1.09
						l-0.01,0.16C594.3,271.43,588.4,273.61,575.1,278.25z"/>
					<path class="st6" d="M557.6,233.48c0.89,7.67-5.25,6.23-18.91,2.75c-1.9-0.5-2.72-2.84,0.77-3.02l13.99-1.2l0.04-0.09
						c1.8,0.56,3.3,1.04,4.27,1.36L557.6,233.48z"/>
				</g>
				<g>
					<g>
						<path class="st6" d="M638.02,112.88c-0.04-1.32-0.64-1.98-1.39-2.98c0.8-1.06,0.68-2.83,0.17-4
							c-0.37-0.85-1.53-2.13-2.54-2.04c-0.19-1.46-1.61-3.23-2.8-3.98c-0.5-0.31-2.5-1.07-2.32,0.18c-1.1-1.56-6.24-2.76-6.82-0.52
							c-1.33-0.34-2.72,0.08-3.96,0.56c-0.6,0.23-1.43,0.46-1.74,1.1c-0.27,0.57,0.18,0.49-0.45,0.78c-0.38,0.18-1.01,0.22-1.43,0.4
							c-0.65,0.27-1.33,0.55-1.82,1.06c-0.71,0.73-1.6,2.56-1.49,3.64c0,0-1.4,1.57,0.14,3.43c0.64,0.78,0.57,1.54,1.43,2.22
							c0.95,0.75,2.37,1.05,3.51,0.54c0.95-0.42,1.02-0.87,2.05-0.87c1.07,0.01,2.03-0.07,3.04-0.45c0.82-0.31,1.17-0.91,1.89-1.31
							c0.52,1.36,0.79,2.47,2.2,3.04c-0.26,1.04-0.67,1.91-0.09,2.97c0.66,1.21,1.34,1.25,2.38,1.55c-0.48-0.3-0.52-1.21-0.38-1.71
							c0.23-0.82,1-1.49,1.8-1.4c4.99,0.54,2.58,6.42,2.58,6.42c0.33,1.81,2.7,1.5,3.73,0.83c1.45-0.96,2.11-3.51,1.08-5.05
							C637.94,116.12,638.08,114.44,638.02,112.88z"/>
					</g>
				</g>
			</g>
			<g>
				<g>
					<linearGradient id="SVGID_31_" gradientUnits="userSpaceOnUse" x1="212.7842" y1="83.4067" x2="195.8108" y2="35.9504">
						<stop  offset="0" style="stop-color:#EE4921"/>
						<stop  offset="0.1586" style="stop-color:#F05530"/>
						<stop  offset="0.4284" style="stop-color:#F46443"/>
						<stop  offset="0.7057" style="stop-color:#F56D4E"/>
						<stop  offset="1" style="stop-color:#F67052"/>
					</linearGradient>
					<path class="st42" d="M223.71,48.52l8.42,15.33c-4.21,7.83-10.34,13.92-18.27,18.33c-6.17,3.46-13.43,5.91-21.74,7.4
						c-0.08,0.01-0.17,0.03-0.24,0.04l-10.16-19.45c0.04-0.04,0.06-0.09,0.1-0.14c4.2-5.91,8.95-10.59,14.27-14.04
						C204.05,50.77,213.28,48.32,223.71,48.52z"/>
					<linearGradient id="SVGID_32_" gradientUnits="userSpaceOnUse" x1="219.1053" y1="30.2413" x2="244.1033" y2="74.7293">
						<stop  offset="0" style="stop-color:#CCCCCC"/>
						<stop  offset="1" style="stop-color:#FFFFFF"/>
					</linearGradient>
					<path class="st43" d="M236.65,52.26c-1.12,4.22-2.62,8.08-4.53,11.59l-8.42-15.33c2.28,0.04,4.6,0.2,6.99,0.5
						c1.25,0.18,2.7,0.39,4.36,0.66c0.24,0.04,0.47,0.13,0.67,0.25c0.1,0.06,0.2,0.14,0.29,0.22
						C236.6,50.66,236.86,51.47,236.65,52.26z"/>
					<linearGradient id="SVGID_33_" gradientUnits="userSpaceOnUse" x1="186.5767" y1="64.9964" x2="211.5733" y2="109.4818">
						<stop  offset="0" style="stop-color:#CCCCCC"/>
						<stop  offset="0.7197" style="stop-color:#F1F1F1"/>
						<stop  offset="1" style="stop-color:#FFFFFF"/>
					</linearGradient>
					<path class="st44" d="M213.86,82.18c-8.39,7.85-16.75,14.36-25.1,18.07l3.35-10.68C200.43,88.09,207.69,85.63,213.86,82.18z"/>
					<linearGradient id="SVGID_34_" gradientUnits="userSpaceOnUse" x1="178.0484" y1="53.3002" x2="203.0496" y2="97.794">
						<stop  offset="0" style="stop-color:#CCCCCC"/>
						<stop  offset="1" style="stop-color:#FFFFFF"/>
					</linearGradient>
					<path class="st45" d="M196.07,55.99c-5.31,3.46-10.06,8.13-14.26,14.04l-13.21-4.14C176.02,61.39,185.53,58.32,196.07,55.99z"
						/>
					<linearGradient id="SVGID_35_" gradientUnits="userSpaceOnUse" x1="179.2646" y1="52.4217" x2="204.2627" y2="96.91">
						<stop  offset="0" style="stop-color:#CCCCCC"/>
						<stop  offset="1" style="stop-color:#FFFFFF"/>
					</linearGradient>
					<polygon class="st46" points="177.06,84.77 182.18,76.11 207.51,66.43 187.44,84.65 					"/>
					<path class="st11" d="M211.96,58.87c-1.14,3.64,0.88,7.51,4.52,8.65c3.64,1.14,7.51-0.88,8.65-4.52
						c1.14-3.64-0.88-7.51-4.52-8.65C216.97,53.21,213.1,55.23,211.96,58.87z"/>
				</g>
				<g>
					<g>
						<path class="st47" d="M175.03,84.89c-0.19-0.05-1.23,0.42-2.85,1.37"/>
						<path class="st48" d="M166.64,89.92c-18.31,13.29-55.94,51.38-1.38,96.14"/>
						<path class="st47" d="M167.87,188.15c0.82,0.64,1.66,1.29,2.52,1.93"/>
					</g>
				</g>
			</g>
			<g>
				<g>
					
						<linearGradient id="SVGID_36_" gradientUnits="userSpaceOnUse" x1="4.6831" y1="-847.7799" x2="-25.509" y2="-932.1947" gradientTransform="matrix(0.6389 -0.7693 0.7693 0.6389 1102.5966 747.3758)">
						<stop  offset="0" style="stop-color:#EE4921"/>
						<stop  offset="0.1586" style="stop-color:#F05530"/>
						<stop  offset="0.4284" style="stop-color:#F46443"/>
						<stop  offset="0.7057" style="stop-color:#F56D4E"/>
						<stop  offset="1" style="stop-color:#F67052"/>
					</linearGradient>
					<path class="st49" d="M396.77,186.39c4.21,7.83,10.33,13.91,18.27,18.33c6.17,3.45,13.43,5.91,21.75,7.39
						c0.07,0.01,0.16,0.03,0.23,0.04l10.16-19.45c-0.04-0.05-0.06-0.1-0.1-0.14c-4.2-5.91-8.95-10.58-14.26-14.04
						c-7.97-5.21-17.2-7.67-27.63-7.47c-3.64,0.06-7.42,0.45-11.35,1.17c-1.18,0.21-1.89,1.41-1.59,2.57
						C393.37,179.02,394.87,182.88,396.77,186.39z"/>
					<linearGradient id="SVGID_37_" gradientUnits="userSpaceOnUse" x1="417.461" y1="227.3577" x2="460.6861" y2="169.3003">
						<stop  offset="0" style="stop-color:#CCCCCC"/>
						<stop  offset="1" style="stop-color:#FFFFFF"/>
					</linearGradient>
					<path class="st50" d="M415.04,204.72c8.39,7.85,16.75,14.36,25.1,18.07l-3.35-10.68C428.47,210.62,421.21,208.17,415.04,204.72
						z"/>
					<linearGradient id="SVGID_38_" gradientUnits="userSpaceOnUse" x1="415.1602" y1="225.6487" x2="458.3848" y2="167.5922">
						<stop  offset="0" style="stop-color:#CCCCCC"/>
						<stop  offset="1" style="stop-color:#FFFFFF"/>
					</linearGradient>
					<path class="st51" d="M432.83,178.52c5.31,3.46,10.06,8.13,14.26,14.04l13.21-4.14C452.88,183.93,443.37,180.86,432.83,178.52z
						"/>
					<linearGradient id="SVGID_39_" gradientUnits="userSpaceOnUse" x1="415.8815" y1="226.4435" x2="459.0999" y2="168.3952">
						<stop  offset="0" style="stop-color:#CCCCCC"/>
						<stop  offset="1" style="stop-color:#FFFFFF"/>
					</linearGradient>
					<polygon class="st52" points="451.84,207.77 446.72,199.11 421.39,189.43 441.46,207.65 					"/>
					<path class="st11" d="M416.94,181.41c1.14,3.64-0.88,7.51-4.52,8.65c-3.64,1.14-7.51-0.88-8.65-4.52
						c-1.14-3.64,0.88-7.51,4.52-8.65C411.93,175.75,415.8,177.77,416.94,181.41z"/>
					<linearGradient id="SVGID_40_" gradientUnits="userSpaceOnUse" x1="379.97" y1="199.4506" x2="423.1881" y2="141.4027">
						<stop  offset="0" style="stop-color:#CCCCCC"/>
						<stop  offset="1" style="stop-color:#FFFFFF"/>
					</linearGradient>
					<path class="st53" d="M396.77,186.39l8.42-15.34c-0.56-0.35-3.48-0.07-11.35,1.17c-1.19,0.19-1.89,1.41-1.59,2.57
						C393.37,179.02,394.87,182.88,396.77,186.39z"/>
				</g>
				<g>
					<g>
						<path class="st47" d="M453.87,207.42c0.19-0.05,1.23,0.42,2.85,1.37"/>
						<path class="st48" d="M462.26,212.46c18.31,13.29,55.94,51.38,1.38,96.14"/>
						<path class="st47" d="M461.03,310.69c-0.82,0.64-1.66,1.29-2.52,1.93"/>
					</g>
				</g>
			</g>
		</g>
	</g>
</g>
<g id="DESIGNED_BY_FREEPIK">
</g>
</svg>
