<?xml version="1.0" encoding="utf-8"?>
<!-- Generator: Adobe Illustrator 24.0.1, SVG Export Plug-In . SVG Version: 6.00 Build 0)  -->
<svg version="1.1" id="Layer_1" xmlns="http://www.w3.org/2000/svg" xmlns:xlink="http://www.w3.org/1999/xlink" x="0px" y="0px"
	 viewBox="0 0 34.02 39.69" style="enable-background:new 0 0 34.02 39.69;" xml:space="preserve">
<style type="text/css">
	.st0{fill-rule:evenodd;clip-rule:evenodd;fill:#C4262C;}
	.st1{fill-rule:evenodd;clip-rule:evenodd;fill:#C6232A;}
</style>
<g>
	<path class="st0" d="M16.19,21.62c-0.38-0.08-0.95-0.8-1.1-1.15c-0.2-0.45,0.53-0.95,0.79-1.21c0.46-0.46,1.83-2.01,2.25-2.21
		L16.19,21.62z M20.82,14.56c0.13-0.65,1.21-3.15,1.54-3.92c0.97-2.29,2.23-5.23,3.93-6.92c2.87-2.85,5.7-0.96,3.49,3.25
		c-0.6,1.16-1.54,2.23-2.35,3.11C26.33,11.27,21.99,14.21,20.82,14.56L20.82,14.56z M15.54,18.97c-0.06-0.63,0.24-1.61-0.46-1.71
		c-0.68-0.09-0.76,0.92-0.74,1.47c0.07,1.81,0.45,0.75-0.82,2.48c-0.45,0.6-2.15,2.38-2.72,2.93c-0.67,0.64-1.81,1.42-2.98,1.69
		c-1.68,0.38-2.74,0.32-2.62-1.63c0.15-2.39,1.31-4.37,3.12-5.78c0.57-0.45,2.5-1.63,3.3-0.77c0.22,1.09-1.46,0.73-0.91,1.83
		c0.4,0.8,1.72,0.22,2.02-0.28c0.77-1.27-0.39-2.7-3.11-2.12c-2.48,0.53-4.09,1.75-5.49,3.47c-0.2,0.25-1.37,1.43-1.31,1.67
		c0.04,0.13,0.3,0.15,0.4,0.22c0,1.6,0.64,3.22,1.66,3.78c1.87,1.03,4.38-0.42,5.85-1.52c0.7-0.52,3.12-3.26,3.83-4.17
		c0.13,0.87-0.28,3.54-0.44,4.47c-0.24,1.41-0.61,2.76-1.08,4.03l-3.48,8.61l2.04-0.23c0.31-0.03,0.58-0.24,0.69-0.53l5.39-13.9
		c0.68,0.02,3.24,1.4,5-0.78c0.56-0.69,2.35-3.4,2.85-3.72c-0.03,0.21-1.21,2.64-1.52,3.55c-0.56,1.65,0.38,2.98,1.47,3.5
		c2.23,1.07,4.24-1.82,5.28-3.39l0.38-0.58c0.08-0.34,0.02-0.16-0.07-0.24c-0.4-0.36-1.73,3.24-4.02,4.08
		c-0.8,0.29-1.7-0.07-1.95-0.64c-0.24-0.53,0.36-1.47,0.58-1.91c0.38-0.78,2.63-5.27,2.65-5.69c-2.48-0.09-2.37,0.04-3.18,1.13
		c-0.57,0.76-1.19,1.57-1.79,2.38c-0.49,0.68-1.22,1.76-2.04,2.16c-0.86,0.43-2.71,0.32-3.45-0.23c0.03-0.38,1.8-5.14,2.09-5.95
		c0.53-1.52,0.36-1.09,2.06-2.06c2.4-1.37,6.29-4.34,7.85-6.75c2.68-4.13,0.33-6.55-2.15-5.58c-3.39,1.32-7.17,9.18-8.52,12.16
		C18.11,16.86,17.25,17.09,15.54,18.97L15.54,18.97z"/>
	<path class="st1" d="M29.49,13.66c0.17-2.74-4.3-1.07-1.56,0.23C28.7,14.26,28.99,14.09,29.49,13.66L29.49,13.66z"/>
</g>
</svg>
